<svg xmlns="http://www.w3.org/2000/svg" xmlns:oryx="http://oryx-editor.org" id="_1DDC8036-824E-455D-8CBE-9E10CB27E1AF" width="571" height="395" xmlns:xlink="http://www.w3.org/1999/xlink" xmlns:svg="http://www.w3.org/2000/svg"><defs><marker id="_2A3792E8-F78C-429E-AF2D-B82041B6EA60start" refX="1" refY="5" markerUnits="userSpaceOnUse" markerWidth="17" markerHeight="11" orient="auto" fill="#000000" stroke="#000000"> 	  		<path id="_2A3792E8-F78C-429E-AF2D-B82041B6EA60conditional" d="M 0 5 L 8 0 L 16 5 L 8 10 L 0 5" fill="white" stroke="#000000" stroke-width="1" display="none"/> 			<path id="_2A3792E8-F78C-429E-AF2D-B82041B6EA60default" d="M 5 0 L 11 10" fill="white" stroke="#000000" stroke-width="1" display="none"/> 	  	</marker><marker id="_2A3792E8-F78C-429E-AF2D-B82041B6EA60end" refX="15" refY="6" markerUnits="userSpaceOnUse" markerWidth="15" markerHeight="12" orient="auto" fill="#000000" stroke="#000000"> 	  		<path id="_2A3792E8-F78C-429E-AF2D-B82041B6EA60frame2" d="M 0 1 L 15 6 L 0 11z" fill="#000000" stroke="#000000" stroke-linejoin="round" stroke-width="2"/> 	  	</marker><marker id="_D5DFBD93-9832-45B3-BA65-1600D71A5C4Fstart" refX="1" refY="5" markerUnits="userSpaceOnUse" markerWidth="17" markerHeight="11" orient="auto" fill="#000000" stroke="#000000"> 	  		<path id="_D5DFBD93-9832-45B3-BA65-1600D71A5C4Fconditional" d="M 0 5 L 8 0 L 16 5 L 8 10 L 0 5" fill="white" stroke="#000000" stroke-width="1" display="none"/> 			<path id="_D5DFBD93-9832-45B3-BA65-1600D71A5C4Fdefault" d="M 5 0 L 11 10" fill="white" stroke="#000000" stroke-width="1" display="none"/> 	  	</marker><marker id="_D5DFBD93-9832-45B3-BA65-1600D71A5C4Fend" refX="15" refY="6" markerUnits="userSpaceOnUse" markerWidth="15" markerHeight="12" orient="auto" fill="#000000" stroke="#000000"> 	  		<path id="_D5DFBD93-9832-45B3-BA65-1600D71A5C4Fframe2" d="M 0 1 L 15 6 L 0 11z" fill="#000000" stroke="#000000" stroke-linejoin="round" stroke-width="2"/> 	  	</marker><marker id="_A5A43AD9-C146-4F6D-9460-AE7B4B09F7C4start" refX="1" refY="5" markerUnits="userSpaceOnUse" markerWidth="17" markerHeight="11" orient="auto" fill="#000000" stroke="#000000"> 	  		<path id="_A5A43AD9-C146-4F6D-9460-AE7B4B09F7C4conditional" d="M 0 5 L 8 0 L 16 5 L 8 10 L 0 5" fill="white" stroke="#000000" stroke-width="1" display="none"/> 			<path id="_A5A43AD9-C146-4F6D-9460-AE7B4B09F7C4default" d="M 5 0 L 11 10" fill="white" stroke="#000000" stroke-width="1" display="none"/> 	  	</marker><marker id="_A5A43AD9-C146-4F6D-9460-AE7B4B09F7C4end" refX="15" refY="6" markerUnits="userSpaceOnUse" markerWidth="15" markerHeight="12" orient="auto" fill="#000000" stroke="#000000"> 	  		<path id="_A5A43AD9-C146-4F6D-9460-AE7B4B09F7C4frame2" d="M 0 1 L 15 6 L 0 11z" fill="#000000" stroke="#000000" stroke-linejoin="round" stroke-width="2"/> 	  	</marker><marker id="_B0125D7B-E2AE-4759-A6C3-6120E9FFAF37start" refX="1" refY="5" markerUnits="userSpaceOnUse" markerWidth="17" markerHeight="11" orient="auto" fill="#000000" stroke="#000000"> 	  		<path id="_B0125D7B-E2AE-4759-A6C3-6120E9FFAF37conditional" d="M 0 5 L 8 0 L 16 5 L 8 10 L 0 5" fill="white" stroke="#000000" stroke-width="1" display="none"/> 			<path id="_B0125D7B-E2AE-4759-A6C3-6120E9FFAF37default" d="M 5 0 L 11 10" fill="white" stroke="#000000" stroke-width="1" display="none"/> 	  	</marker><marker id="_B0125D7B-E2AE-4759-A6C3-6120E9FFAF37end" refX="15" refY="6" markerUnits="userSpaceOnUse" markerWidth="15" markerHeight="12" orient="auto" fill="#000000" stroke="#000000"> 	  		<path id="_B0125D7B-E2AE-4759-A6C3-6120E9FFAF37frame2" d="M 0 1 L 15 6 L 0 11z" fill="#000000" stroke="#000000" stroke-linejoin="round" stroke-width="2"/> 	  	</marker><marker id="_5179FC3A-B2DC-4433-B33F-EB1DDB2FC1C6start" refX="1" refY="5" markerUnits="userSpaceOnUse" markerWidth="17" markerHeight="11" orient="auto" fill="#000000" stroke="#000000"> 	  		<path id="_5179FC3A-B2DC-4433-B33F-EB1DDB2FC1C6conditional" d="M 0 5 L 8 0 L 16 5 L 8 10 L 0 5" fill="white" stroke="#000000" stroke-width="1" display="none"/> 			<path id="_5179FC3A-B2DC-4433-B33F-EB1DDB2FC1C6default" d="M 5 0 L 11 10" fill="white" stroke="#000000" stroke-width="1" display="none"/> 	  	</marker><marker id="_5179FC3A-B2DC-4433-B33F-EB1DDB2FC1C6end" refX="15" refY="6" markerUnits="userSpaceOnUse" markerWidth="15" markerHeight="12" orient="auto" fill="#000000" stroke="#000000"> 	  		<path id="_5179FC3A-B2DC-4433-B33F-EB1DDB2FC1C6frame2" d="M 0 1 L 15 6 L 0 11z" fill="#000000" stroke="#000000" stroke-linejoin="round" stroke-width="2"/> 	  	</marker><marker id="_452DEA5E-DFB7-4677-993A-FF963F355D4Dstart" refX="1" refY="5" markerUnits="userSpaceOnUse" markerWidth="17" markerHeight="11" orient="auto" fill="#000000" stroke="#000000"> 	  		<path id="_452DEA5E-DFB7-4677-993A-FF963F355D4Dconditional" d="M 0 5 L 8 0 L 16 5 L 8 10 L 0 5" fill="white" stroke="#000000" stroke-width="1" display="none"/> 			<path id="_452DEA5E-DFB7-4677-993A-FF963F355D4Ddefault" d="M 5 0 L 11 10" fill="white" stroke="#000000" stroke-width="1" display="none"/> 	  	</marker><marker id="_452DEA5E-DFB7-4677-993A-FF963F355D4Dend" refX="15" refY="6" markerUnits="userSpaceOnUse" markerWidth="15" markerHeight="12" orient="auto" fill="#000000" stroke="#000000"> 	  		<path id="_452DEA5E-DFB7-4677-993A-FF963F355D4Dframe2" d="M 0 1 L 15 6 L 0 11z" fill="#000000" stroke="#000000" stroke-linejoin="round" stroke-width="2"/> 	  	</marker></defs><g stroke="none" font-family="Verdana, sans-serif" font-size-adjust="none" font-style="normal" font-variant="normal" font-weight="normal" line-heigth="normal" font-size="12"><g class="stencils" transform="translate(15, 16)"><g class="me"/><g class="children"><g id="_D08DD462-B1E7-4C01-BFA1-6F01B7FD31C7" bpmn2nodeid="processStartEvent"><g class="stencils" transform="translate(120, 165)"><g class="me"><g pointer-events="fill" id="_D08DD462-B1E7-4C01-BFA1-6F01B7FD31C7">        <defs id="_D08DD462-B1E7-4C01-BFA1-6F01B7FD31C7__D08DD462-B1E7-4C01-BFA1-6F01B7FD31C7_5"> 		<radialGradient id="_D08DD462-B1E7-4C01-BFA1-6F01B7FD31C7background" cx="10%" cy="10%" r="100%" fx="10%" fy="10%"> 			<stop offset="0%" stop-color="#ffffff" stop-opacity="1" id="_D08DD462-B1E7-4C01-BFA1-6F01B7FD31C7__D08DD462-B1E7-4C01-BFA1-6F01B7FD31C7_6"/> 			<stop id="_D08DD462-B1E7-4C01-BFA1-6F01B7FD31C7fill_el" offset="100%" stop-color="#9acd32" stop-opacity="1"/> 		</radialGradient> 	</defs> 	     <circle id="_D08DD462-B1E7-4C01-BFA1-6F01B7FD31C7bg_frame" cx="15" cy="15" r="15" stroke="#000000" fill="url(#_D08DD462-B1E7-4C01-BFA1-6F01B7FD31C7background) white" stroke-width="1" style="stroke-dasharray: 5.5, 3"/>      <circle id="_D08DD462-B1E7-4C01-BFA1-6F01B7FD31C7frame" cx="15" cy="15" r="15" stroke="#000000" fill="none" stroke-width="1" display="inherit"/>  	<text font-size="11" id="_D08DD462-B1E7-4C01-BFA1-6F01B7FD31C7text_name" x="15" y="32" oryx:align="top center" stroke="black" stroke-width="0pt" letter-spacing="-0.01px" fill="#000000" text-anchor="middle" transform="rotate(0 15 32)" visibility="inherit" oryx:fontSize="11"/>   </g></g><g class="children" style="overflow:hidden"/><g class="edge"/></g><g class="controls"><g class="dockers"/><g class="magnets" transform="translate(120, 165)"><g pointer-events="all" display="none" transform="translate(7, 7)"><circle cx="8" cy="8" r="4" stroke="none" fill="red" fill-opacity="0.3"/></g></g></g></g><g id="_AA110B74-F4E8-441C-93CA-B53D4B524A3D" bpmn2nodeid="_8E12BE50-01D0-4DEE-90EE-A2A0FFE6E12B"><g class="stencils" transform="translate(194, 160)"><g class="me"><g id="_AA110B74-F4E8-441C-93CA-B53D4B524A3D">        <defs id="_AA110B74-F4E8-441C-93CA-B53D4B524A3D__AA110B74-F4E8-441C-93CA-B53D4B524A3D_4"> 		<radialGradient id="_AA110B74-F4E8-441C-93CA-B53D4B524A3Dbackground" cx="10%" cy="10%" r="100%" fx="10%" fy="10%"> 			<stop offset="0%" stop-color="#ffffff" stop-opacity="1" id="_AA110B74-F4E8-441C-93CA-B53D4B524A3D__AA110B74-F4E8-441C-93CA-B53D4B524A3D_5"/> 			<stop id="_AA110B74-F4E8-441C-93CA-B53D4B524A3Dfill_el" offset="100%" stop-color="#f0e68c" stop-opacity="1"/> 		</radialGradient> 		<radialGradient id="_AA110B74-F4E8-441C-93CA-B53D4B524A3Dborderbackground" cx="10%" cy="10%" r="100%" fx="10%" fy="10%"> 			<stop offset="0%" stop-color="#ffffff" stop-opacity="1" id="_AA110B74-F4E8-441C-93CA-B53D4B524A3D__AA110B74-F4E8-441C-93CA-B53D4B524A3D_6"/> 			<stop id="_AA110B74-F4E8-441C-93CA-B53D4B524A3Dfill_border" offset="100%" stop-color="#a67f00" stop-opacity="1" stroke="#a67f00"/> 		</radialGradient> 	</defs> 	     <path d=" M0 20.5  L20.5 0  L40 20.5  L20.5 40  z" id="_AA110B74-F4E8-441C-93CA-B53D4B524A3Dbg_frame" fill="url(#_AA110B74-F4E8-441C-93CA-B53D4B524A3Dbackground) white" style="stroke-width:1" stroke="#a67f00"/>     <g id="_AA110B74-F4E8-441C-93CA-B53D4B524A3Dframe" stroke="#a67f00">       <path id="_AA110B74-F4E8-441C-93CA-B53D4B524A3Dframe2" d=" M13.25 12.05  L17.25 12.05  L27.65 28.95  L23.75 28.95  z" style="stroke-width:1" stroke="#a67f00" fill="url(#_AA110B74-F4E8-441C-93CA-B53D4B524A3Dborderbackground)"/>       <path id="_AA110B74-F4E8-441C-93CA-B53D4B524A3Dframe3" d=" M13.25 28.95  L23.75 12.05  L27.65 12.05  L17.25 28.95  z" style="stroke-width:1" stroke="#a67f00" fill="url(#_AA110B74-F4E8-441C-93CA-B53D4B524A3Dborderbackground)"/>     </g> 	 	<text id="_AA110B74-F4E8-441C-93CA-B53D4B524A3Dtext_name" x="30.5" y="30.5" oryx:align="left top" stroke-width="0pt" letter-spacing="-0.01px" fill="#000000" text-anchor="start" transform="rotate(0 30.5 30.5)" visibility="inherit" oryx:fontSize="12"/> 	   </g></g><g class="children" style="overflow:hidden"/><g class="edge"/></g><g class="controls"><g class="dockers"/><g class="magnets" transform="translate(194, 160)"><g pointer-events="all" display="none" transform="translate(12.5, 12.5)"><circle cx="8" cy="8" r="4" stroke="none" fill="red" fill-opacity="0.3"/></g></g></g></g><g id="_FB5F2949-0FD4-4311-944C-DEE9C9A75185" bpmn2nodeid="_6CF0F747-51D3-4700-8381-C652DB4C3BCA"><g class="stencils" transform="translate(263, 140)"><g class="me"><g pointer-events="fill" oryx:minimumSize="50 40" id="_FB5F2949-0FD4-4311-944C-DEE9C9A75185">   	<defs id="_FB5F2949-0FD4-4311-944C-DEE9C9A75185__FB5F2949-0FD4-4311-944C-DEE9C9A75185_17"> 		<radialGradient id="_FB5F2949-0FD4-4311-944C-DEE9C9A75185background" cx="10%" cy="10%" r="100%" fx="10%" fy="10%"> 			<stop offset="0%" stop-color="#ffffff" stop-opacity="1" id="_FB5F2949-0FD4-4311-944C-DEE9C9A75185__FB5F2949-0FD4-4311-944C-DEE9C9A75185_18"/> 			<stop id="_FB5F2949-0FD4-4311-944C-DEE9C9A75185fill_el" offset="100%" stop-color="#fafad2" stop-opacity="1"/> 		</radialGradient> 		<radialGradient id="_FB5F2949-0FD4-4311-944C-DEE9C9A75185borderbackground" cx="10%" cy="10%" r="100%" fx="10%" fy="10%"> 			<stop offset="0%" stop-color="#ffffff" stop-opacity="1" id="_FB5F2949-0FD4-4311-944C-DEE9C9A75185__FB5F2949-0FD4-4311-944C-DEE9C9A75185_19"/> 			<stop id="_FB5F2949-0FD4-4311-944C-DEE9C9A75185fill_border" offset="100%" stop-color="#000000" stop-opacity="1" stroke="#000000"/> 		</radialGradient> 	</defs> 	 	<rect id="_FB5F2949-0FD4-4311-944C-DEE9C9A75185text_frame" oryx:anchors="bottom top right left" x="1" y="1" width="94" height="79" rx="10" ry="10" stroke="none" stroke-width="0" fill="none"/> 	<rect id="_FB5F2949-0FD4-4311-944C-DEE9C9A75185bg_frame" oryx:resize="vertical horizontal" x="0" y="0" width="100" height="80" rx="10" ry="10" stroke="#000000" stroke-width="1" fill="url(#_FB5F2949-0FD4-4311-944C-DEE9C9A75185background) #ffffcc"/> 		<text font-size="12" id="_FB5F2949-0FD4-4311-944C-DEE9C9A75185text_name" x="50" y="40" oryx:align="middle center" oryx:fittoelem="text_frame" stroke="black" text-anchor="middle" stroke-width="0pt" letter-spacing="-0.01px" fill="#000000" transform="rotate(0 50 40)" visibility="inherit" oryx:fontSize="12"><tspan x="50" y="40" dy="5" id="ext-gen1678">Input Validation</tspan></text>     <g id="_FB5F2949-0FD4-4311-944C-DEE9C9A75185manualTask" transform="scale(0.7,0.7) translate(8,8)" display="none">     	<path oryx:anchors="top left" id="_FB5F2949-0FD4-4311-944C-DEE9C9A75185frame" style="opacity:1;fill:none;fill-opacity:1;stroke-width:1" d="M0.5,3.751l4.083-3.25c0,0,11.166,0.083,12.083,0.083s-2.417,2.917-1.5,2.917     s11.667,0,12.584,0c1.166,1.708-0.168,3.167-0.834,3.667s0.875,1.917-1,4.417c-0.75,0.25,0.75,1.875-1.333,3.333     c-1.167,0.583,0.583,1.542-1.25,2.833c-1.167,0-20.833,0.083-20.833,0.083l-2-1.333V3.751z" stroke="#000000"/> 		<path id="_FB5F2949-0FD4-4311-944C-DEE9C9A75185frame2" oryx:anchors="top left" style="opacity:1;fill:none;stroke-width:2" d="M 13.5 7 L 27 7" stroke="#000000"/> 		<path id="_FB5F2949-0FD4-4311-944C-DEE9C9A75185frame3" oryx:anchors="top left" style="opacity:1;fill:none;stroke-width:2" d="M 13.5 11 L 26 11" stroke="#000000"/> 		<path id="_FB5F2949-0FD4-4311-944C-DEE9C9A75185frame4" oryx:anchors="top left" style="opacity:1;fill:none;stroke-width:1.5" d="M 14 14.5 L 25 14.5" stroke="#000000"/> 		<path id="_FB5F2949-0FD4-4311-944C-DEE9C9A75185frame5" oryx:anchors="top left" style="opacity:1;fill:none;stroke-width:1.5" d="M 8.2 3.1 L 15 3.1" stroke="#000000"/> 	</g> 	 	<g id="_FB5F2949-0FD4-4311-944C-DEE9C9A75185businessRuleTask" transform="scale(0.7,0.7) translate(8,8)" display="inherit"> 		<rect id="_FB5F2949-0FD4-4311-944C-DEE9C9A75185frame6" oryx:anchors="top left" x="0" y="0" width="22" height="4" style="opacity:1;fill:#B3B1B3;fill-opacity:1;" stroke="#000000"/> 		<rect id="_FB5F2949-0FD4-4311-944C-DEE9C9A75185frame7" oryx:anchors="top left" x="0" y="4" style="opacity:1;fill:none;" width="22" height="12" stroke="#000000"/> 		<path id="_FB5F2949-0FD4-4311-944C-DEE9C9A75185frame8" oryx:anchors="top left" style="opacity:1;fill:none;" d="M 0 10 L 22 10" stroke="#000000"/> 		<path id="_FB5F2949-0FD4-4311-944C-DEE9C9A75185frame9" oryx:anchors="top left" style="opacity:1; fill:none;" d="M 7 4 L 7 16" stroke="#000000"/> 	</g> 	 	<g id="_FB5F2949-0FD4-4311-944C-DEE9C9A75185scriptTask" transform="scale(0.7,0.7) translate(8,8)" display="none"> 		<path oryx:anchors="top left" id="_FB5F2949-0FD4-4311-944C-DEE9C9A75185frame10" style="opacity:1;fill:none;" stroke="#000000" d="M6.402,0.5h14.5c0,0-5.833,2.833-5.833,5.583s4.417,6,4.417,9.167    s-4.167,5.083-4.167,5.083H0.235c0,0,5-2.667,5-5s-4.583-6.75-4.583-9.25S6.402,0.5,6.402,0.5z"/> 		<path oryx:anchors="top left" id="_FB5F2949-0FD4-4311-944C-DEE9C9A75185frame11" style="opacity:1;fill:none;stroke-width:1.5" d="M 3.5 4.5 L 13.5 4.5" stroke="#000000"/> 		<path oryx:anchors="top left" id="_FB5F2949-0FD4-4311-944C-DEE9C9A75185frame12" style="opacity:1;fill:none;stroke-width:1.5" d="M 3.8 8.5 L 13.8 8.5" stroke="#000000"/> 		<path oryx:anchors="top left" id="_FB5F2949-0FD4-4311-944C-DEE9C9A75185frame13" style="opacity:1;fill:none;stroke-width:1.5" d="M 6.3 12.5 L 16.3 12.5" stroke="#000000"/> 		<path oryx:anchors="top left" id="_FB5F2949-0FD4-4311-944C-DEE9C9A75185frame14" style="opacity:1;fill:none;stroke-width:1.5" d="M 6.5 16.5 L 16.5 16.5" stroke="#000000"/> 	</g> 	 	<g id="_FB5F2949-0FD4-4311-944C-DEE9C9A75185userTask" transform="scale(0.7,0.7) translate(8,8)" display="none"> 		<path id="_FB5F2949-0FD4-4311-944C-DEE9C9A75185frame15" oryx:anchors="top left" style="opacity:1;fill:#F4F6F7" stroke="#000000" d="M0.585,24.167h24.083v-7.833c0,0-2.333-3.917-7.083-5.167h-9.25    c-4.417,1.333-7.833,5.75-7.833,5.75L0.585,24.167z"/> 		<path id="_FB5F2949-0FD4-4311-944C-DEE9C9A75185frame16" oryx:anchors="top left" style="opacity:1;fill:none" d="M 6 20 L 6 24" stroke="#000000"/> 		<path id="_FB5F2949-0FD4-4311-944C-DEE9C9A75185frame17" oryx:anchors="top left" style="opacity:1;fill:none" d="M 20 20 L 20 24" stroke="#000000"/> 		<circle id="_FB5F2949-0FD4-4311-944C-DEE9C9A75185frame18" oryx:anchors="top left" fill="black" cx="13.002" cy="5.916" r="5.417" stroke="#000000"/> 		<path id="_FB5F2949-0FD4-4311-944C-DEE9C9A75185frame19" oryx:anchors="top left" style="opacity:1;fill:#F0EFF0;" stroke="#000000" d="M8.043,7.083c0,0,2.814-2.426,5.376-1.807s4.624-0.693,4.624-0.693    c0.25,1.688,0.042,3.75-1.458,5.584c0,0,1.083,0.75,1.083,1.5s0.125,1.875-1,3s-5.5,1.25-6.75,0S8.668,12.834,8.668,12    s0.583-1.25,1.25-1.917C8.835,9.5,7.419,7.708,8.043,7.083z"/> 	</g> 	 	<g id="_FB5F2949-0FD4-4311-944C-DEE9C9A75185serviceTask" transform="scale(0.7,0.7) translate(8,8)" display="none"> 		<polygon oryx:anchors="top left" id="_FB5F2949-0FD4-4311-944C-DEE9C9A75185frame20" style="opacity:1;fill:#ffffff" stroke="#000000" points="15.392,5.064 17.954,2.502 20.347,4.895 17.786,7.455     18.729,9.732 22.353,9.732 22.353,13.115 18.731,13.115 17.788,15.392 20.351,17.955 17.958,20.347 15.397,17.786 13.12,18.729     13.12,22.353 9.737,22.353 9.737,18.731 7.46,17.788 4.897,20.35 2.506,17.958 5.066,15.397 4.124,13.12 0.5,13.12 0.5,9.737     4.121,9.737 5.065,7.461 2.503,4.898 4.895,2.506 7.455,5.066 9.732,4.125 9.732,0.5 13.116,0.5 13.116,4.121 "/> 		<circle oryx:anchors="top left" id="_FB5F2949-0FD4-4311-944C-DEE9C9A75185frame21" style="opacity:1;fill:none" stroke="#000000" cx="11.427" cy="11.426" r="3.714"/> 		<polygon oryx:anchors="top left" id="_FB5F2949-0FD4-4311-944C-DEE9C9A75185frame22" style="opacity:1;fill:#ffffff" stroke="#000000" points="21.392,11.064 23.954,8.502 26.347,10.895 23.786,13.455     24.729,15.732 28.353,15.732 28.353,19.115 24.731,19.115 23.788,21.392 26.351,23.955 23.958,26.347 21.397,23.786 19.12,24.729     19.12,28.353 15.737,28.353 15.737,24.731 13.46,23.788 10.897,26.35 8.506,23.958 11.066,21.397 10.124,19.12 6.5,19.12     6.5,15.737 10.121,15.737 11.065,13.461 8.503,10.898 10.895,8.506 13.455,11.066 15.732,10.125 15.732,6.5 19.116,6.5     19.116,10.121 "/> 		<circle oryx:anchors="top left" id="_FB5F2949-0FD4-4311-944C-DEE9C9A75185frame23" style="opacity:1;fill:none;" stroke="#000000" cx="17.427" cy="17.426" r="3.714"/> 	</g> 	 	<g id="_FB5F2949-0FD4-4311-944C-DEE9C9A75185sendTask" display="none"> 		<path id="_FB5F2949-0FD4-4311-944C-DEE9C9A75185stframe24" oryx:anchors="left top" stroke="#FFFFFF" fill="black" stroke-width="1" d="M8,11 L8,21 L24,21 L24,11 L16,17z"/> 		<path id="_FB5F2949-0FD4-4311-944C-DEE9C9A75185stframe25" oryx:anchors="left top" stroke="#FFFFFF" fill="black" stroke-width="1" d="M7,10 L16,17 L25 10z"/> 	</g> 	 	<g id="_FB5F2949-0FD4-4311-944C-DEE9C9A75185receiveTask" display="none"> 		<path id="_FB5F2949-0FD4-4311-944C-DEE9C9A75185frame26" oryx:anchors="left top" stroke="#000000" fill="none" stroke-width="1" d="M8,11 L8,21 L24,21 L24,11z M8,11 L16,17 L24,11"/> 	</g> 	 	<g id="_FB5F2949-0FD4-4311-944C-DEE9C9A75185none" display="inherit"/>  	<g id="_FB5F2949-0FD4-4311-944C-DEE9C9A75185sequential" display="none">         <path oryx:anchors="bottom" fill="none" stroke="#000000" stroke-width="2" d="M46,76h10M46,72h10 M46,68h10" id="_FB5F2949-0FD4-4311-944C-DEE9C9A75185__FB5F2949-0FD4-4311-944C-DEE9C9A75185_20"/>     </g>   </g></g><g class="children" style="overflow:hidden"/><g class="edge"/></g><g class="controls"><g class="dockers"/><g class="magnets" transform="translate(263, 140)"><g pointer-events="all" display="none" transform="translate(-7, 12)"><circle cx="8" cy="8" r="4" stroke="none" fill="red" fill-opacity="0.3"/></g><g pointer-events="all" display="none" transform="translate(-7, 32)"><circle cx="8" cy="8" r="4" stroke="none" fill="red" fill-opacity="0.3"/></g><g pointer-events="all" display="none" transform="translate(-7, 52)"><circle cx="8" cy="8" r="4" stroke="none" fill="red" fill-opacity="0.3"/></g><g pointer-events="all" display="none" transform="translate(17, 71)"><circle cx="8" cy="8" r="4" stroke="none" fill="red" fill-opacity="0.3"/></g><g pointer-events="all" display="none" transform="translate(42, 71)"><circle cx="8" cy="8" r="4" stroke="none" fill="red" fill-opacity="0.3"/></g><g pointer-events="all" display="none" transform="translate(67, 71)"><circle cx="8" cy="8" r="4" stroke="none" fill="red" fill-opacity="0.3"/></g><g pointer-events="all" display="none" transform="translate(91, 12)"><circle cx="8" cy="8" r="4" stroke="none" fill="red" fill-opacity="0.3"/></g><g pointer-events="all" display="none" transform="translate(91, 32)"><circle cx="8" cy="8" r="4" stroke="none" fill="red" fill-opacity="0.3"/></g><g pointer-events="all" display="none" transform="translate(91, 52)"><circle cx="8" cy="8" r="4" stroke="none" fill="red" fill-opacity="0.3"/></g><g pointer-events="all" display="none" transform="translate(17, -7)"><circle cx="8" cy="8" r="4" stroke="none" fill="red" fill-opacity="0.3"/></g><g pointer-events="all" display="none" transform="translate(42, -7)"><circle cx="8" cy="8" r="4" stroke="none" fill="red" fill-opacity="0.3"/></g><g pointer-events="all" display="none" transform="translate(67, -7)"><circle cx="8" cy="8" r="4" stroke="none" fill="red" fill-opacity="0.3"/></g><g pointer-events="all" display="none" transform="translate(42, 32)"><circle cx="8" cy="8" r="4" stroke="none" fill="red" fill-opacity="0.3"/></g></g></g></g><g id="_343DBDB1-3826-45A9-AB4A-E37E9CC1F70C" bpmn2nodeid="_BCE7BE98-2392-47FF-94E5-138BF114F530"><g class="stencils" transform="translate(418, 160)"><g class="me"><g id="_343DBDB1-3826-45A9-AB4A-E37E9CC1F70C">        <defs id="_343DBDB1-3826-45A9-AB4A-E37E9CC1F70C__343DBDB1-3826-45A9-AB4A-E37E9CC1F70C_4"> 		<radialGradient id="_343DBDB1-3826-45A9-AB4A-E37E9CC1F70Cbackground" cx="10%" cy="10%" r="100%" fx="10%" fy="10%"> 			<stop offset="0%" stop-color="#ffffff" stop-opacity="1" id="_343DBDB1-3826-45A9-AB4A-E37E9CC1F70C__343DBDB1-3826-45A9-AB4A-E37E9CC1F70C_5"/> 			<stop id="_343DBDB1-3826-45A9-AB4A-E37E9CC1F70Cfill_el" offset="100%" stop-color="#f0e68c" stop-opacity="1"/> 		</radialGradient> 		<radialGradient id="_343DBDB1-3826-45A9-AB4A-E37E9CC1F70Cborderbackground" cx="10%" cy="10%" r="100%" fx="10%" fy="10%"> 			<stop offset="0%" stop-color="#ffffff" stop-opacity="1" id="_343DBDB1-3826-45A9-AB4A-E37E9CC1F70C__343DBDB1-3826-45A9-AB4A-E37E9CC1F70C_6"/> 			<stop id="_343DBDB1-3826-45A9-AB4A-E37E9CC1F70Cfill_border" offset="100%" stop-color="#a67f00" stop-opacity="1" stroke="#a67f00"/> 		</radialGradient> 	</defs> 	     <path d=" M0 20.5  L20.5 0  L40 20.5  L20.5 40  z" id="_343DBDB1-3826-45A9-AB4A-E37E9CC1F70Cbg_frame" fill="url(#_343DBDB1-3826-45A9-AB4A-E37E9CC1F70Cbackground) white" style="stroke-width:1" stroke="#a67f00"/>     <g id="_343DBDB1-3826-45A9-AB4A-E37E9CC1F70Cframe" stroke="#a67f00">       <path id="_343DBDB1-3826-45A9-AB4A-E37E9CC1F70Cframe2" d=" M13.25 12.05  L17.25 12.05  L27.65 28.95  L23.75 28.95  z" style="stroke-width:1" stroke="#a67f00" fill="url(#_343DBDB1-3826-45A9-AB4A-E37E9CC1F70Cborderbackground)"/>       <path id="_343DBDB1-3826-45A9-AB4A-E37E9CC1F70Cframe3" d=" M13.25 28.95  L23.75 12.05  L27.65 12.05  L17.25 28.95  z" style="stroke-width:1" stroke="#a67f00" fill="url(#_343DBDB1-3826-45A9-AB4A-E37E9CC1F70Cborderbackground)"/>     </g> 	 	<text id="_343DBDB1-3826-45A9-AB4A-E37E9CC1F70Ctext_name" x="30.5" y="30.5" oryx:align="left top" stroke-width="0pt" letter-spacing="-0.01px" fill="#000000" text-anchor="start" transform="rotate(0 30.5 30.5)" visibility="inherit" oryx:fontSize="12"/> 	   </g></g><g class="children" style="overflow:hidden"/><g class="edge"/></g><g class="controls"><g class="dockers"/><g class="magnets" transform="translate(418, 160)"><g pointer-events="all" display="none" transform="translate(12.5, 12.5)"><circle cx="8" cy="8" r="4" stroke="none" fill="red" fill-opacity="0.3"/></g></g></g></g><g id="_8DF84DE2-59BD-483B-8549-544064997299" bpmn2nodeid="_552C8660-0615-437B-B915-F4AB1FB4A84F"><g class="stencils" transform="translate(503, 166)"><g class="me"><g pointer-events="fill" id="_8DF84DE2-59BD-483B-8549-544064997299">      <defs id="_8DF84DE2-59BD-483B-8549-544064997299__8DF84DE2-59BD-483B-8549-544064997299_5"> 		<radialGradient id="_8DF84DE2-59BD-483B-8549-544064997299background" cx="10%" cy="10%" r="100%" fx="10%" fy="10%"> 			<stop offset="0%" stop-color="#ffffff" stop-opacity="1" id="_8DF84DE2-59BD-483B-8549-544064997299__8DF84DE2-59BD-483B-8549-544064997299_6"/> 			<stop id="_8DF84DE2-59BD-483B-8549-544064997299fill_el" offset="100%" stop-color="#ff6347" stop-opacity="1"/> 		</radialGradient> 	</defs> 	     <circle id="_8DF84DE2-59BD-483B-8549-544064997299bg_frame" cx="14" cy="14" r="14" stroke="#000000" fill="url(#_8DF84DE2-59BD-483B-8549-544064997299background) white" stroke-width="3"/> 	<text font-size="11" id="_8DF84DE2-59BD-483B-8549-544064997299text_name" x="14" y="30" oryx:align="top center" stroke="black" stroke-width="0pt" letter-spacing="-0.01px" fill="#000000" text-anchor="middle" transform="rotate(0 14 30)" visibility="inherit" oryx:fontSize="11"/>   </g></g><g class="children" style="overflow:hidden"/><g class="edge"/></g><g class="controls"><g class="dockers"/><g class="magnets" transform="translate(503, 166)"><g pointer-events="all" display="none" transform="translate(6, 6)"><circle cx="8" cy="8" r="4" stroke="none" fill="red" fill-opacity="0.3"/></g></g></g></g><g id="_0A46467F-541D-495E-A984-1903B9B6503B" bpmn2nodeid="_E718F816-54EF-48C4-BCA9-7FF0A0E83D14"><g class="stencils" transform="translate(263, 270)"><g class="me"><g pointer-events="fill" oryx:minimumSize="50 40" id="_0A46467F-541D-495E-A984-1903B9B6503B">   	<defs id="_0A46467F-541D-495E-A984-1903B9B6503B__0A46467F-541D-495E-A984-1903B9B6503B_17"> 		<radialGradient id="_0A46467F-541D-495E-A984-1903B9B6503Bbackground" cx="10%" cy="10%" r="100%" fx="10%" fy="10%"> 			<stop offset="0%" stop-color="#ffffff" stop-opacity="1" id="_0A46467F-541D-495E-A984-1903B9B6503B__0A46467F-541D-495E-A984-1903B9B6503B_18"/> 			<stop id="_0A46467F-541D-495E-A984-1903B9B6503Bfill_el" offset="100%" stop-color="#fafad2" stop-opacity="1"/> 		</radialGradient> 		<radialGradient id="_0A46467F-541D-495E-A984-1903B9B6503Bborderbackground" cx="10%" cy="10%" r="100%" fx="10%" fy="10%"> 			<stop offset="0%" stop-color="#ffffff" stop-opacity="1" id="_0A46467F-541D-495E-A984-1903B9B6503B__0A46467F-541D-495E-A984-1903B9B6503B_19"/> 			<stop id="_0A46467F-541D-495E-A984-1903B9B6503Bfill_border" offset="100%" stop-color="#000000" stop-opacity="1" stroke="#000000"/> 		</radialGradient> 	</defs> 	 	<rect id="_0A46467F-541D-495E-A984-1903B9B6503Btext_frame" oryx:anchors="bottom top right left" x="1" y="1" width="94" height="79" rx="10" ry="10" stroke="none" stroke-width="0" fill="none"/> 	<rect id="_0A46467F-541D-495E-A984-1903B9B6503Bbg_frame" oryx:resize="vertical horizontal" x="0" y="0" width="100" height="80" rx="10" ry="10" stroke="#000000" stroke-width="1" fill="url(#_0A46467F-541D-495E-A984-1903B9B6503Bbackground) #ffffcc"/> 		<text font-size="12" id="_0A46467F-541D-495E-A984-1903B9B6503Btext_name" x="50" y="40" oryx:align="middle center" oryx:fittoelem="text_frame" stroke="black" text-anchor="middle" stroke-width="0pt" letter-spacing="-0.01px" fill="#000000" transform="rotate(0 50 40)" visibility="inherit" oryx:fontSize="12"><tspan x="50" y="40" dy="5" id="ext-gen2509">Correct Input</tspan></text>     <g id="_0A46467F-541D-495E-A984-1903B9B6503BmanualTask" transform="scale(0.7,0.7) translate(8,8)" display="none">     	<path oryx:anchors="top left" id="_0A46467F-541D-495E-A984-1903B9B6503Bframe" style="opacity:1;fill:none;fill-opacity:1;stroke-width:1" d="M0.5,3.751l4.083-3.25c0,0,11.166,0.083,12.083,0.083s-2.417,2.917-1.5,2.917     s11.667,0,12.584,0c1.166,1.708-0.168,3.167-0.834,3.667s0.875,1.917-1,4.417c-0.75,0.25,0.75,1.875-1.333,3.333     c-1.167,0.583,0.583,1.542-1.25,2.833c-1.167,0-20.833,0.083-20.833,0.083l-2-1.333V3.751z" stroke="#000000"/> 		<path id="_0A46467F-541D-495E-A984-1903B9B6503Bframe2" oryx:anchors="top left" style="opacity:1;fill:none;stroke-width:2" d="M 13.5 7 L 27 7" stroke="#000000"/> 		<path id="_0A46467F-541D-495E-A984-1903B9B6503Bframe3" oryx:anchors="top left" style="opacity:1;fill:none;stroke-width:2" d="M 13.5 11 L 26 11" stroke="#000000"/> 		<path id="_0A46467F-541D-495E-A984-1903B9B6503Bframe4" oryx:anchors="top left" style="opacity:1;fill:none;stroke-width:1.5" d="M 14 14.5 L 25 14.5" stroke="#000000"/> 		<path id="_0A46467F-541D-495E-A984-1903B9B6503Bframe5" oryx:anchors="top left" style="opacity:1;fill:none;stroke-width:1.5" d="M 8.2 3.1 L 15 3.1" stroke="#000000"/> 	</g> 	 	<g id="_0A46467F-541D-495E-A984-1903B9B6503BbusinessRuleTask" transform="scale(0.7,0.7) translate(8,8)" display="none"> 		<rect id="_0A46467F-541D-495E-A984-1903B9B6503Bframe6" oryx:anchors="top left" x="0" y="0" width="22" height="4" style="opacity:1;fill:#B3B1B3;fill-opacity:1;" stroke="#000000"/> 		<rect id="_0A46467F-541D-495E-A984-1903B9B6503Bframe7" oryx:anchors="top left" x="0" y="4" style="opacity:1;fill:none;" width="22" height="12" stroke="#000000"/> 		<path id="_0A46467F-541D-495E-A984-1903B9B6503Bframe8" oryx:anchors="top left" style="opacity:1;fill:none;" d="M 0 10 L 22 10" stroke="#000000"/> 		<path id="_0A46467F-541D-495E-A984-1903B9B6503Bframe9" oryx:anchors="top left" style="opacity:1; fill:none;" d="M 7 4 L 7 16" stroke="#000000"/> 	</g> 	 	<g id="_0A46467F-541D-495E-A984-1903B9B6503BscriptTask" transform="scale(0.7,0.7) translate(8,8)" display="none"> 		<path oryx:anchors="top left" id="_0A46467F-541D-495E-A984-1903B9B6503Bframe10" style="opacity:1;fill:none;" stroke="#000000" d="M6.402,0.5h14.5c0,0-5.833,2.833-5.833,5.583s4.417,6,4.417,9.167    s-4.167,5.083-4.167,5.083H0.235c0,0,5-2.667,5-5s-4.583-6.75-4.583-9.25S6.402,0.5,6.402,0.5z"/> 		<path oryx:anchors="top left" id="_0A46467F-541D-495E-A984-1903B9B6503Bframe11" style="opacity:1;fill:none;stroke-width:1.5" d="M 3.5 4.5 L 13.5 4.5" stroke="#000000"/> 		<path oryx:anchors="top left" id="_0A46467F-541D-495E-A984-1903B9B6503Bframe12" style="opacity:1;fill:none;stroke-width:1.5" d="M 3.8 8.5 L 13.8 8.5" stroke="#000000"/> 		<path oryx:anchors="top left" id="_0A46467F-541D-495E-A984-1903B9B6503Bframe13" style="opacity:1;fill:none;stroke-width:1.5" d="M 6.3 12.5 L 16.3 12.5" stroke="#000000"/> 		<path oryx:anchors="top left" id="_0A46467F-541D-495E-A984-1903B9B6503Bframe14" style="opacity:1;fill:none;stroke-width:1.5" d="M 6.5 16.5 L 16.5 16.5" stroke="#000000"/> 	</g> 	 	<g id="_0A46467F-541D-495E-A984-1903B9B6503BuserTask" transform="scale(0.7,0.7) translate(8,8)" display="inherit"> 		<path id="_0A46467F-541D-495E-A984-1903B9B6503Bframe15" oryx:anchors="top left" style="opacity:1;fill:#F4F6F7" stroke="#000000" d="M0.585,24.167h24.083v-7.833c0,0-2.333-3.917-7.083-5.167h-9.25    c-4.417,1.333-7.833,5.75-7.833,5.75L0.585,24.167z"/> 		<path id="_0A46467F-541D-495E-A984-1903B9B6503Bframe16" oryx:anchors="top left" style="opacity:1;fill:none" d="M 6 20 L 6 24" stroke="#000000"/> 		<path id="_0A46467F-541D-495E-A984-1903B9B6503Bframe17" oryx:anchors="top left" style="opacity:1;fill:none" d="M 20 20 L 20 24" stroke="#000000"/> 		<circle id="_0A46467F-541D-495E-A984-1903B9B6503Bframe18" oryx:anchors="top left" fill="black" cx="13.002" cy="5.916" r="5.417" stroke="#000000"/> 		<path id="_0A46467F-541D-495E-A984-1903B9B6503Bframe19" oryx:anchors="top left" style="opacity:1;fill:#F0EFF0;" stroke="#000000" d="M8.043,7.083c0,0,2.814-2.426,5.376-1.807s4.624-0.693,4.624-0.693    c0.25,1.688,0.042,3.75-1.458,5.584c0,0,1.083,0.75,1.083,1.5s0.125,1.875-1,3s-5.5,1.25-6.75,0S8.668,12.834,8.668,12    s0.583-1.25,1.25-1.917C8.835,9.5,7.419,7.708,8.043,7.083z"/> 	</g> 	 	<g id="_0A46467F-541D-495E-A984-1903B9B6503BserviceTask" transform="scale(0.7,0.7) translate(8,8)" display="none"> 		<polygon oryx:anchors="top left" id="_0A46467F-541D-495E-A984-1903B9B6503Bframe20" style="opacity:1;fill:#ffffff" stroke="#000000" points="15.392,5.064 17.954,2.502 20.347,4.895 17.786,7.455     18.729,9.732 22.353,9.732 22.353,13.115 18.731,13.115 17.788,15.392 20.351,17.955 17.958,20.347 15.397,17.786 13.12,18.729     13.12,22.353 9.737,22.353 9.737,18.731 7.46,17.788 4.897,20.35 2.506,17.958 5.066,15.397 4.124,13.12 0.5,13.12 0.5,9.737     4.121,9.737 5.065,7.461 2.503,4.898 4.895,2.506 7.455,5.066 9.732,4.125 9.732,0.5 13.116,0.5 13.116,4.121 "/> 		<circle oryx:anchors="top left" id="_0A46467F-541D-495E-A984-1903B9B6503Bframe21" style="opacity:1;fill:none" stroke="#000000" cx="11.427" cy="11.426" r="3.714"/> 		<polygon oryx:anchors="top left" id="_0A46467F-541D-495E-A984-1903B9B6503Bframe22" style="opacity:1;fill:#ffffff" stroke="#000000" points="21.392,11.064 23.954,8.502 26.347,10.895 23.786,13.455     24.729,15.732 28.353,15.732 28.353,19.115 24.731,19.115 23.788,21.392 26.351,23.955 23.958,26.347 21.397,23.786 19.12,24.729     19.12,28.353 15.737,28.353 15.737,24.731 13.46,23.788 10.897,26.35 8.506,23.958 11.066,21.397 10.124,19.12 6.5,19.12     6.5,15.737 10.121,15.737 11.065,13.461 8.503,10.898 10.895,8.506 13.455,11.066 15.732,10.125 15.732,6.5 19.116,6.5     19.116,10.121 "/> 		<circle oryx:anchors="top left" id="_0A46467F-541D-495E-A984-1903B9B6503Bframe23" style="opacity:1;fill:none;" stroke="#000000" cx="17.427" cy="17.426" r="3.714"/> 	</g> 	 	<g id="_0A46467F-541D-495E-A984-1903B9B6503BsendTask" display="none"> 		<path id="_0A46467F-541D-495E-A984-1903B9B6503Bstframe24" oryx:anchors="left top" stroke="#FFFFFF" fill="black" stroke-width="1" d="M8,11 L8,21 L24,21 L24,11 L16,17z"/> 		<path id="_0A46467F-541D-495E-A984-1903B9B6503Bstframe25" oryx:anchors="left top" stroke="#FFFFFF" fill="black" stroke-width="1" d="M7,10 L16,17 L25 10z"/> 	</g> 	 	<g id="_0A46467F-541D-495E-A984-1903B9B6503BreceiveTask" display="none"> 		<path id="_0A46467F-541D-495E-A984-1903B9B6503Bframe26" oryx:anchors="left top" stroke="#000000" fill="none" stroke-width="1" d="M8,11 L8,21 L24,21 L24,11z M8,11 L16,17 L24,11"/> 	</g> 	 	<g id="_0A46467F-541D-495E-A984-1903B9B6503Bnone" display="inherit"/>  	<g id="_0A46467F-541D-495E-A984-1903B9B6503Bsequential" display="none">         <path oryx:anchors="bottom" fill="none" stroke="#000000" stroke-width="2" d="M46,76h10M46,72h10 M46,68h10" id="_0A46467F-541D-495E-A984-1903B9B6503B__0A46467F-541D-495E-A984-1903B9B6503B_20"/>     </g>   </g></g><g class="children" style="overflow:hidden"/><g class="edge"/></g><g class="controls"><g class="dockers"/><g class="magnets" transform="translate(263, 270)"><g pointer-events="all" display="none" transform="translate(-7, 12)"><circle cx="8" cy="8" r="4" stroke="none" fill="red" fill-opacity="0.3"/></g><g pointer-events="all" display="none" transform="translate(-7, 32)"><circle cx="8" cy="8" r="4" stroke="none" fill="red" fill-opacity="0.3"/></g><g pointer-events="all" display="none" transform="translate(-7, 52)"><circle cx="8" cy="8" r="4" stroke="none" fill="red" fill-opacity="0.3"/></g><g pointer-events="all" display="none" transform="translate(17, 71)"><circle cx="8" cy="8" r="4" stroke="none" fill="red" fill-opacity="0.3"/></g><g pointer-events="all" display="none" transform="translate(42, 71)"><circle cx="8" cy="8" r="4" stroke="none" fill="red" fill-opacity="0.3"/></g><g pointer-events="all" display="none" transform="translate(67, 71)"><circle cx="8" cy="8" r="4" stroke="none" fill="red" fill-opacity="0.3"/></g><g pointer-events="all" display="none" transform="translate(91, 12)"><circle cx="8" cy="8" r="4" stroke="none" fill="red" fill-opacity="0.3"/></g><g pointer-events="all" display="none" transform="translate(91, 32)"><circle cx="8" cy="8" r="4" stroke="none" fill="red" fill-opacity="0.3"/></g><g pointer-events="all" display="none" transform="translate(91, 52)"><circle cx="8" cy="8" r="4" stroke="none" fill="red" fill-opacity="0.3"/></g><g pointer-events="all" display="none" transform="translate(17, -7)"><circle cx="8" cy="8" r="4" stroke="none" fill="red" fill-opacity="0.3"/></g><g pointer-events="all" display="none" transform="translate(42, -7)"><circle cx="8" cy="8" r="4" stroke="none" fill="red" fill-opacity="0.3"/></g><g pointer-events="all" display="none" transform="translate(67, -7)"><circle cx="8" cy="8" r="4" stroke="none" fill="red" fill-opacity="0.3"/></g><g pointer-events="all" display="none" transform="translate(42, 32)"><circle cx="8" cy="8" r="4" stroke="none" fill="red" fill-opacity="0.3"/></g></g></g></g></g><g class="edge"><g id="_2A3792E8-F78C-429E-AF2D-B82041B6EA60" bpmn2nodeid="_A5692768-9116-4D52-8A05-C48046D1861E"><g class="stencils"><g class="me"><g pointer-events="painted" bpmn2nodeid="_A5692768-9116-4D52-8A05-C48046D1861E"><path id="_2A3792E8-F78C-429E-AF2D-B82041B6EA60_1" d="M150.8125 180L194.484375 180 " stroke="#000000" fill="none" stroke-width="2" stroke-linecap="round" stroke-linejoin="round" marker-start="url(#_2A3792E8-F78C-429E-AF2D-B82041B6EA60start)" marker-end="url(#_2A3792E8-F78C-429E-AF2D-B82041B6EA60end)"/></g><text id="_2A3792E8-F78C-429E-AF2D-B82041B6EA60text_name" font-size="12" x="164.8125" y="166" oryx:edgePosition="startTop" stroke-width="0pt" letter-spacing="-0.01px" fill="#000000" text-anchor="start" transform="rotate(360 150.8125 180)" visibility="inherit" oryx:fontSize="12"/></g><g class="children" style="overflow:hidden"/><g class="edge"/></g><g class="controls"><g class="dockers"/><g class="magnets"/></g></g><g id="_D5DFBD93-9832-45B3-BA65-1600D71A5C4F" bpmn2nodeid="_E1239FC8-1D66-40B7-9098-14DD5C581930"><g class="stencils"><g class="me"><g pointer-events="painted" bpmn2nodeid="_E1239FC8-1D66-40B7-9098-14DD5C581930"><path id="_D5DFBD93-9832-45B3-BA65-1600D71A5C4F_1" d="M233.96873711663952 180.4011739232658L262.7500128833605 180.2550760767342 " stroke="#000000" fill="none" stroke-width="2" stroke-linecap="round" stroke-linejoin="round" marker-start="url(#_D5DFBD93-9832-45B3-BA65-1600D71A5C4Fstart)" marker-end="url(#_D5DFBD93-9832-45B3-BA65-1600D71A5C4Fend)"/></g><text id="_D5DFBD93-9832-45B3-BA65-1600D71A5C4Ftext_name" font-size="12" x="247.96873711663952" y="166.4011739232658" oryx:edgePosition="startTop" stroke-width="0pt" letter-spacing="-0.01px" fill="#000000" text-anchor="start" transform="rotate(359.70916097764945 233.96873711663952 180.4011739232658)" visibility="inherit" oryx:fontSize="12"/></g><g class="children" style="overflow:hidden"/><g class="edge"/></g><g class="controls"><g class="dockers"/><g class="magnets"/></g></g><g id="_A5A43AD9-C146-4F6D-9460-AE7B4B09F7C4" bpmn2nodeid="_6A3DF122-917C-49A1-BF6F-266F3BB620BB"><g class="stencils"><g class="me"><g pointer-events="painted" bpmn2nodeid="_6A3DF122-917C-49A1-BF6F-266F3BB620BB"><path id="_A5A43AD9-C146-4F6D-9460-AE7B4B09F7C4_1" d="M363.8046875 180L418.4453125 180 " stroke="#000000" fill="none" stroke-width="2" stroke-linecap="round" stroke-linejoin="round" marker-start="url(#_A5A43AD9-C146-4F6D-9460-AE7B4B09F7C4start)" marker-end="url(#_A5A43AD9-C146-4F6D-9460-AE7B4B09F7C4end)"/></g><text id="_A5A43AD9-C146-4F6D-9460-AE7B4B09F7C4text_name" font-size="12" x="377.8046875" y="166" oryx:edgePosition="startTop" stroke-width="0pt" letter-spacing="-0.01px" fill="#000000" text-anchor="start" transform="rotate(360 363.8046875 180)" visibility="inherit" oryx:fontSize="12"/></g><g class="children" style="overflow:hidden"/><g class="edge"/></g><g class="controls"><g class="dockers"/><g class="magnets"/></g></g><g id="_B0125D7B-E2AE-4759-A6C3-6120E9FFAF37" bpmn2nodeid="_D4EEBF17-1C15-4FDC-B9E7-8083B16CCAF0"><g class="stencils"><g class="me"><g pointer-events="painted" bpmn2nodeid="_D4EEBF17-1C15-4FDC-B9E7-8083B16CCAF0"><path id="_B0125D7B-E2AE-4759-A6C3-6120E9FFAF37_1" d="M457.8984172158186 180.376443202447L502.5078327841814 180.092306797553 " stroke="#000000" fill="none" stroke-width="2" stroke-linecap="round" stroke-linejoin="round" marker-start="url(#_B0125D7B-E2AE-4759-A6C3-6120E9FFAF37start)" marker-end="url(#_B0125D7B-E2AE-4759-A6C3-6120E9FFAF37end)"/></g><text id="_B0125D7B-E2AE-4759-A6C3-6120E9FFAF37text_name" font-size="12" x="471.8984172158186" y="166.376443202447" oryx:edgePosition="startTop" stroke-width="0pt" letter-spacing="-0.01px" fill="#000000" text-anchor="start" transform="rotate(359.63506366426935 457.8984172158186 180.376443202447)" visibility="inherit" oryx:fontSize="12"><tspan x="471.8984172158186" y="166.376443202447" dy="0" id="ext-gen1781">No Errors</tspan></text></g><g class="children" style="overflow:hidden"/><g class="edge"/></g><g class="controls"><g class="dockers"/><g class="magnets"/></g></g><g id="_5179FC3A-B2DC-4433-B33F-EB1DDB2FC1C6" bpmn2nodeid="_217469A1-C3FE-4292-B7D1-C9F439539DA4"><g class="stencils"><g class="me"><g pointer-events="painted" bpmn2nodeid="_217469A1-C3FE-4292-B7D1-C9F439539DA4"><path id="_5179FC3A-B2DC-4433-B33F-EB1DDB2FC1C6_1" d="M438.5 200.72265625L438.5 310 L363.0234375 310 " stroke="#000000" fill="none" stroke-width="2" stroke-linecap="round" stroke-linejoin="round" marker-start="url(#_5179FC3A-B2DC-4433-B33F-EB1DDB2FC1C6start)" marker-end="url(#_5179FC3A-B2DC-4433-B33F-EB1DDB2FC1C6end)"/></g><text id="_5179FC3A-B2DC-4433-B33F-EB1DDB2FC1C6text_name" font-size="12" x="424.5" y="186.72265625" oryx:edgePosition="startTop" stroke-width="0pt" letter-spacing="-0.01px" fill="#000000" text-anchor="end" transform="rotate(-90 438.5 200.72265625)" visibility="inherit" oryx:fontSize="12"><tspan x="424.5" y="186.72265625" dy="0">Errors</tspan></text></g><g class="children" style="overflow:hidden"/><g class="edge"/></g><g class="controls"><g class="dockers"/><g class="magnets"/></g></g><g id="_452DEA5E-DFB7-4677-993A-FF963F355D4D" bpmn2nodeid="_6DCF4F9A-3379-4582-9932-65A6CF4990A0"><g class="stencils"><g class="me"><g pointer-events="painted" bpmn2nodeid="_6DCF4F9A-3379-4582-9932-65A6CF4990A0"><path id="_452DEA5E-DFB7-4677-993A-FF963F355D4D_1" d="M262.5 310L214 310 L214 200.296875 " stroke="#000000" fill="none" stroke-width="2" stroke-linecap="round" stroke-linejoin="round" marker-start="url(#_452DEA5E-DFB7-4677-993A-FF963F355D4Dstart)" marker-end="url(#_452DEA5E-DFB7-4677-993A-FF963F355D4Dend)"/></g><text id="_452DEA5E-DFB7-4677-993A-FF963F355D4Dtext_name" font-size="12" x="248.5" y="296" oryx:edgePosition="startTop" stroke-width="0pt" letter-spacing="-0.01px" fill="#000000" text-anchor="end" transform="rotate(0 262.5 310)" visibility="inherit" oryx:fontSize="12"/></g><g class="children" style="overflow:hidden"/><g class="edge"/></g><g class="controls"><g class="dockers"/><g class="magnets"/></g></g></g><text id="_C9A82A96-0AC7-4A4D-8AF6-027629C68537" style="stroke-width:1;fill:rgb(177,194,214);font-family:arial;font-weight:bold" font-size="12" onclick="ORYX.Plugins.CanvasTitle.openTextualAnalysis()" onmouseover="ORYX.Plugins.CanvasTitle.addToolTip('_C9A82A96-0AC7-4A4D-8AF6-027629C68537')" transform="translate(10, 20)">RCM Business Process v.1.0 (src.RCMBusinessProcess)</text></g></g></svg>