<svg xmlns="http://www.w3.org/2000/svg" xmlns:oryx="http://oryx-editor.org" id="_FAE1A9AD-901E-4B1F-A201-217C2F53711A" width="571" height="391" xmlns:xlink="http://www.w3.org/1999/xlink" xmlns:svg="http://www.w3.org/2000/svg"><defs><marker id="_E1D02ED8-9665-4880-8833-957BC294CAC7start" refX="1" refY="5" markerUnits="userSpaceOnUse" markerWidth="17" markerHeight="11" orient="auto" fill="#000000" stroke="#000000"> 	  		<path id="_E1D02ED8-9665-4880-8833-957BC294CAC7conditional" d="M 0 5 L 8 0 L 16 5 L 8 10 L 0 5" fill="white" stroke="#000000" stroke-width="1" display="none"/> 			<path id="_E1D02ED8-9665-4880-8833-957BC294CAC7default" d="M 5 0 L 11 10" fill="white" stroke="#000000" stroke-width="1" display="none"/> 	  	</marker><marker id="_E1D02ED8-9665-4880-8833-957BC294CAC7end" refX="15" refY="6" markerUnits="userSpaceOnUse" markerWidth="15" markerHeight="12" orient="auto" fill="#000000" stroke="#000000"> 	  		<path id="_E1D02ED8-9665-4880-8833-957BC294CAC7frame2" d="M 0 1 L 15 6 L 0 11z" fill="#000000" stroke="#000000" stroke-linejoin="round" stroke-width="2"/> 	  	</marker><marker id="_02BF4D36-5B76-4D82-AC7F-16058EF44FDBstart" refX="1" refY="5" markerUnits="userSpaceOnUse" markerWidth="17" markerHeight="11" orient="auto" fill="#000000" stroke="#000000"> 	  		<path id="_02BF4D36-5B76-4D82-AC7F-16058EF44FDBconditional" d="M 0 5 L 8 0 L 16 5 L 8 10 L 0 5" fill="white" stroke="#000000" stroke-width="1" display="none"/> 			<path id="_02BF4D36-5B76-4D82-AC7F-16058EF44FDBdefault" d="M 5 0 L 11 10" fill="white" stroke="#000000" stroke-width="1" display="none"/> 	  	</marker><marker id="_02BF4D36-5B76-4D82-AC7F-16058EF44FDBend" refX="15" refY="6" markerUnits="userSpaceOnUse" markerWidth="15" markerHeight="12" orient="auto" fill="#000000" stroke="#000000"> 	  		<path id="_02BF4D36-5B76-4D82-AC7F-16058EF44FDBframe2" d="M 0 1 L 15 6 L 0 11z" fill="#000000" stroke="#000000" stroke-linejoin="round" stroke-width="2"/> 	  	</marker><marker id="_98CB1CE9-FECE-412B-9EC0-40DFED58510Estart" refX="1" refY="5" markerUnits="userSpaceOnUse" markerWidth="17" markerHeight="11" orient="auto" fill="#000000" stroke="#000000"> 	  		<path id="_98CB1CE9-FECE-412B-9EC0-40DFED58510Econditional" d="M 0 5 L 8 0 L 16 5 L 8 10 L 0 5" fill="white" stroke="#000000" stroke-width="1" display="none"/> 			<path id="_98CB1CE9-FECE-412B-9EC0-40DFED58510Edefault" d="M 5 0 L 11 10" fill="white" stroke="#000000" stroke-width="1" display="none"/> 	  	</marker><marker id="_98CB1CE9-FECE-412B-9EC0-40DFED58510Eend" refX="15" refY="6" markerUnits="userSpaceOnUse" markerWidth="15" markerHeight="12" orient="auto" fill="#000000" stroke="#000000"> 	  		<path id="_98CB1CE9-FECE-412B-9EC0-40DFED58510Eframe2" d="M 0 1 L 15 6 L 0 11z" fill="#000000" stroke="#000000" stroke-linejoin="round" stroke-width="2"/> 	  	</marker><marker id="_99D27E6E-0F76-46E1-858E-33106D323A28start" refX="1" refY="5" markerUnits="userSpaceOnUse" markerWidth="17" markerHeight="11" orient="auto" fill="#000000" stroke="#000000"> 	  		<path id="_99D27E6E-0F76-46E1-858E-33106D323A28conditional" d="M 0 5 L 8 0 L 16 5 L 8 10 L 0 5" fill="white" stroke="#000000" stroke-width="1" display="none"/> 			<path id="_99D27E6E-0F76-46E1-858E-33106D323A28default" d="M 5 0 L 11 10" fill="white" stroke="#000000" stroke-width="1" display="none"/> 	  	</marker><marker id="_99D27E6E-0F76-46E1-858E-33106D323A28end" refX="15" refY="6" markerUnits="userSpaceOnUse" markerWidth="15" markerHeight="12" orient="auto" fill="#000000" stroke="#000000"> 	  		<path id="_99D27E6E-0F76-46E1-858E-33106D323A28frame2" d="M 0 1 L 15 6 L 0 11z" fill="#000000" stroke="#000000" stroke-linejoin="round" stroke-width="2"/> 	  	</marker><marker id="_AF33021C-9E26-4178-8EDB-B8B96DD40363start" refX="1" refY="5" markerUnits="userSpaceOnUse" markerWidth="17" markerHeight="11" orient="auto" fill="#000000" stroke="#000000"> 	  		<path id="_AF33021C-9E26-4178-8EDB-B8B96DD40363conditional" d="M 0 5 L 8 0 L 16 5 L 8 10 L 0 5" fill="white" stroke="#000000" stroke-width="1" display="none"/> 			<path id="_AF33021C-9E26-4178-8EDB-B8B96DD40363default" d="M 5 0 L 11 10" fill="white" stroke="#000000" stroke-width="1" display="none"/> 	  	</marker><marker id="_AF33021C-9E26-4178-8EDB-B8B96DD40363end" refX="15" refY="6" markerUnits="userSpaceOnUse" markerWidth="15" markerHeight="12" orient="auto" fill="#000000" stroke="#000000"> 	  		<path id="_AF33021C-9E26-4178-8EDB-B8B96DD40363frame2" d="M 0 1 L 15 6 L 0 11z" fill="#000000" stroke="#000000" stroke-linejoin="round" stroke-width="2"/> 	  	</marker><marker id="_3F45C2E2-B3E1-44F1-B24D-683E486C5667start" refX="1" refY="5" markerUnits="userSpaceOnUse" markerWidth="17" markerHeight="11" orient="auto" fill="#000000" stroke="#000000"> 	  		<path id="_3F45C2E2-B3E1-44F1-B24D-683E486C5667conditional" d="M 0 5 L 8 0 L 16 5 L 8 10 L 0 5" fill="white" stroke="#000000" stroke-width="1" display="none"/> 			<path id="_3F45C2E2-B3E1-44F1-B24D-683E486C5667default" d="M 5 0 L 11 10" fill="white" stroke="#000000" stroke-width="1" display="none"/> 	  	</marker><marker id="_3F45C2E2-B3E1-44F1-B24D-683E486C5667end" refX="15" refY="6" markerUnits="userSpaceOnUse" markerWidth="15" markerHeight="12" orient="auto" fill="#000000" stroke="#000000"> 	  		<path id="_3F45C2E2-B3E1-44F1-B24D-683E486C5667frame2" d="M 0 1 L 15 6 L 0 11z" fill="#000000" stroke="#000000" stroke-linejoin="round" stroke-width="2"/> 	  	</marker></defs><g stroke="none" font-family="Verdana, sans-serif" font-size-adjust="none" font-style="normal" font-variant="normal" font-weight="normal" line-heigth="normal" font-size="12"><g class="stencils" transform="translate(15, 16)"><g class="me"/><g class="children"><g id="_EC73751A-E1E7-4D70-9B2B-3E0922DE5B45" bpmn2nodeid="_02023D56-720D-46C8-B3F3-A00A56F1AD27"><g class="stencils" transform="translate(120, 165)"><g class="me"><g pointer-events="fill" id="_EC73751A-E1E7-4D70-9B2B-3E0922DE5B45">        <defs id="_EC73751A-E1E7-4D70-9B2B-3E0922DE5B45__EC73751A-E1E7-4D70-9B2B-3E0922DE5B45_5"> 		<radialGradient id="_EC73751A-E1E7-4D70-9B2B-3E0922DE5B45background" cx="10%" cy="10%" r="100%" fx="10%" fy="10%"> 			<stop offset="0%" stop-color="#ffffff" stop-opacity="1" id="_EC73751A-E1E7-4D70-9B2B-3E0922DE5B45__EC73751A-E1E7-4D70-9B2B-3E0922DE5B45_6"/> 			<stop id="_EC73751A-E1E7-4D70-9B2B-3E0922DE5B45fill_el" offset="100%" stop-color="#9acd32" stop-opacity="1"/> 		</radialGradient> 	</defs> 	     <circle id="_EC73751A-E1E7-4D70-9B2B-3E0922DE5B45bg_frame" cx="15" cy="15" r="15" stroke="#000000" fill="url(#_EC73751A-E1E7-4D70-9B2B-3E0922DE5B45background) white" stroke-width="1" style="stroke-dasharray: 5.5, 3"/>      <circle id="_EC73751A-E1E7-4D70-9B2B-3E0922DE5B45frame" cx="15" cy="15" r="15" stroke="#000000" fill="none" stroke-width="1" display="inherit"/>  	<text font-size="11" id="_EC73751A-E1E7-4D70-9B2B-3E0922DE5B45text_name" x="15" y="32" oryx:align="top center" stroke="black" stroke-width="0pt" letter-spacing="-0.01px" fill="#000000" text-anchor="middle" transform="rotate(0 15 32)" visibility="inherit" oryx:fontSize="11"/>   </g></g><g class="children" style="overflow:hidden"/><g class="edge"/></g><g class="controls"><g class="dockers"/><g class="magnets" transform="translate(120, 165)"><g pointer-events="all" display="none" transform="translate(7, 7)"><circle cx="8" cy="8" r="4" stroke="none" fill="red" fill-opacity="0.3"/></g></g></g></g><g id="_CFB736B6-871E-4E30-AC01-3CBCD4E40625" bpmn2nodeid="_C143BC03-0123-451B-A85E-26871E3506F5"><g class="stencils" transform="translate(194, 160)"><g class="me"><g id="_CFB736B6-871E-4E30-AC01-3CBCD4E40625">        <defs id="_CFB736B6-871E-4E30-AC01-3CBCD4E40625__CFB736B6-871E-4E30-AC01-3CBCD4E40625_4"> 		<radialGradient id="_CFB736B6-871E-4E30-AC01-3CBCD4E40625background" cx="10%" cy="10%" r="100%" fx="10%" fy="10%"> 			<stop offset="0%" stop-color="#ffffff" stop-opacity="1" id="_CFB736B6-871E-4E30-AC01-3CBCD4E40625__CFB736B6-871E-4E30-AC01-3CBCD4E40625_5"/> 			<stop id="_CFB736B6-871E-4E30-AC01-3CBCD4E40625fill_el" offset="100%" stop-color="#f0e68c" stop-opacity="1"/> 		</radialGradient> 		<radialGradient id="_CFB736B6-871E-4E30-AC01-3CBCD4E40625borderbackground" cx="10%" cy="10%" r="100%" fx="10%" fy="10%"> 			<stop offset="0%" stop-color="#ffffff" stop-opacity="1" id="_CFB736B6-871E-4E30-AC01-3CBCD4E40625__CFB736B6-871E-4E30-AC01-3CBCD4E40625_6"/> 			<stop id="_CFB736B6-871E-4E30-AC01-3CBCD4E40625fill_border" offset="100%" stop-color="#a67f00" stop-opacity="1" stroke="#a67f00"/> 		</radialGradient> 	</defs> 	     <path d=" M0 20.5  L20.5 0  L40 20.5  L20.5 40  z" id="_CFB736B6-871E-4E30-AC01-3CBCD4E40625bg_frame" fill="url(#_CFB736B6-871E-4E30-AC01-3CBCD4E40625background) white" style="stroke-width:1" stroke="#a67f00"/>     <g id="_CFB736B6-871E-4E30-AC01-3CBCD4E40625frame" stroke="#a67f00">       <path id="_CFB736B6-871E-4E30-AC01-3CBCD4E40625frame2" d=" M13.25 12.05  L17.25 12.05  L27.65 28.95  L23.75 28.95  z" style="stroke-width:1" stroke="#a67f00" fill="url(#_CFB736B6-871E-4E30-AC01-3CBCD4E40625borderbackground)"/>       <path id="_CFB736B6-871E-4E30-AC01-3CBCD4E40625frame3" d=" M13.25 28.95  L23.75 12.05  L27.65 12.05  L17.25 28.95  z" style="stroke-width:1" stroke="#a67f00" fill="url(#_CFB736B6-871E-4E30-AC01-3CBCD4E40625borderbackground)"/>     </g> 	 	<text id="_CFB736B6-871E-4E30-AC01-3CBCD4E40625text_name" x="30.5" y="30.5" oryx:align="left top" stroke-width="0pt" letter-spacing="-0.01px" fill="#000000" text-anchor="start" transform="rotate(0 30.5 30.5)" visibility="inherit" oryx:fontSize="12"/> 	   </g></g><g class="children" style="overflow:hidden"/><g class="edge"/></g><g class="controls"><g class="dockers"/><g class="magnets" transform="translate(194, 160)"><g pointer-events="all" display="none" transform="translate(12.5, 12.5)"><circle cx="8" cy="8" r="4" stroke="none" fill="red" fill-opacity="0.3"/></g></g></g></g><g id="_9EB81987-07B2-4CEE-9BA2-981B8C91CEAB" bpmn2nodeid="_D5126E43-316D-44BA-B035-CB792903F37E"><g class="stencils" transform="translate(263, 140)"><g class="me"><g pointer-events="fill" oryx:minimumSize="50 40" id="_9EB81987-07B2-4CEE-9BA2-981B8C91CEAB">   	<defs id="_9EB81987-07B2-4CEE-9BA2-981B8C91CEAB__9EB81987-07B2-4CEE-9BA2-981B8C91CEAB_17"> 		<radialGradient id="_9EB81987-07B2-4CEE-9BA2-981B8C91CEABbackground" cx="10%" cy="10%" r="100%" fx="10%" fy="10%"> 			<stop offset="0%" stop-color="#ffffff" stop-opacity="1" id="_9EB81987-07B2-4CEE-9BA2-981B8C91CEAB__9EB81987-07B2-4CEE-9BA2-981B8C91CEAB_18"/> 			<stop id="_9EB81987-07B2-4CEE-9BA2-981B8C91CEABfill_el" offset="100%" stop-color="#fafad2" stop-opacity="1"/> 		</radialGradient> 		<radialGradient id="_9EB81987-07B2-4CEE-9BA2-981B8C91CEABborderbackground" cx="10%" cy="10%" r="100%" fx="10%" fy="10%"> 			<stop offset="0%" stop-color="#ffffff" stop-opacity="1" id="_9EB81987-07B2-4CEE-9BA2-981B8C91CEAB__9EB81987-07B2-4CEE-9BA2-981B8C91CEAB_19"/> 			<stop id="_9EB81987-07B2-4CEE-9BA2-981B8C91CEABfill_border" offset="100%" stop-color="#000000" stop-opacity="1" stroke="#000000"/> 		</radialGradient> 	</defs> 	 	<rect id="_9EB81987-07B2-4CEE-9BA2-981B8C91CEABtext_frame" oryx:anchors="bottom top right left" x="1" y="1" width="94" height="79" rx="10" ry="10" stroke="none" stroke-width="0" fill="none"/> 	<rect id="_9EB81987-07B2-4CEE-9BA2-981B8C91CEABbg_frame" oryx:resize="vertical horizontal" x="0" y="0" width="100" height="80" rx="10" ry="10" stroke="#000000" stroke-width="1" fill="url(#_9EB81987-07B2-4CEE-9BA2-981B8C91CEABbackground) #ffffcc"/> 		<text font-size="12" id="_9EB81987-07B2-4CEE-9BA2-981B8C91CEABtext_name" x="50" y="40" oryx:align="middle center" oryx:fittoelem="text_frame" stroke="black" text-anchor="middle" stroke-width="0pt" letter-spacing="-0.01px" fill="#000000" transform="rotate(0 50 40)" visibility="inherit" oryx:fontSize="12"><tspan x="50" y="40" dy="5" id="ext-gen809">Input Validation</tspan></text>     <g id="_9EB81987-07B2-4CEE-9BA2-981B8C91CEABmanualTask" transform="scale(0.7,0.7) translate(8,8)" display="none">     	<path oryx:anchors="top left" id="_9EB81987-07B2-4CEE-9BA2-981B8C91CEABframe" style="opacity:1;fill:none;fill-opacity:1;stroke-width:1" d="M0.5,3.751l4.083-3.25c0,0,11.166,0.083,12.083,0.083s-2.417,2.917-1.5,2.917     s11.667,0,12.584,0c1.166,1.708-0.168,3.167-0.834,3.667s0.875,1.917-1,4.417c-0.75,0.25,0.75,1.875-1.333,3.333     c-1.167,0.583,0.583,1.542-1.25,2.833c-1.167,0-20.833,0.083-20.833,0.083l-2-1.333V3.751z" stroke="#000000"/> 		<path id="_9EB81987-07B2-4CEE-9BA2-981B8C91CEABframe2" oryx:anchors="top left" style="opacity:1;fill:none;stroke-width:2" d="M 13.5 7 L 27 7" stroke="#000000"/> 		<path id="_9EB81987-07B2-4CEE-9BA2-981B8C91CEABframe3" oryx:anchors="top left" style="opacity:1;fill:none;stroke-width:2" d="M 13.5 11 L 26 11" stroke="#000000"/> 		<path id="_9EB81987-07B2-4CEE-9BA2-981B8C91CEABframe4" oryx:anchors="top left" style="opacity:1;fill:none;stroke-width:1.5" d="M 14 14.5 L 25 14.5" stroke="#000000"/> 		<path id="_9EB81987-07B2-4CEE-9BA2-981B8C91CEABframe5" oryx:anchors="top left" style="opacity:1;fill:none;stroke-width:1.5" d="M 8.2 3.1 L 15 3.1" stroke="#000000"/> 	</g> 	 	<g id="_9EB81987-07B2-4CEE-9BA2-981B8C91CEABbusinessRuleTask" transform="scale(0.7,0.7) translate(8,8)" display="inherit"> 		<rect id="_9EB81987-07B2-4CEE-9BA2-981B8C91CEABframe6" oryx:anchors="top left" x="0" y="0" width="22" height="4" style="opacity:1;fill:#B3B1B3;fill-opacity:1;" stroke="#000000"/> 		<rect id="_9EB81987-07B2-4CEE-9BA2-981B8C91CEABframe7" oryx:anchors="top left" x="0" y="4" style="opacity:1;fill:none;" width="22" height="12" stroke="#000000"/> 		<path id="_9EB81987-07B2-4CEE-9BA2-981B8C91CEABframe8" oryx:anchors="top left" style="opacity:1;fill:none;" d="M 0 10 L 22 10" stroke="#000000"/> 		<path id="_9EB81987-07B2-4CEE-9BA2-981B8C91CEABframe9" oryx:anchors="top left" style="opacity:1; fill:none;" d="M 7 4 L 7 16" stroke="#000000"/> 	</g> 	 	<g id="_9EB81987-07B2-4CEE-9BA2-981B8C91CEABscriptTask" transform="scale(0.7,0.7) translate(8,8)" display="none"> 		<path oryx:anchors="top left" id="_9EB81987-07B2-4CEE-9BA2-981B8C91CEABframe10" style="opacity:1;fill:none;" stroke="#000000" d="M6.402,0.5h14.5c0,0-5.833,2.833-5.833,5.583s4.417,6,4.417,9.167    s-4.167,5.083-4.167,5.083H0.235c0,0,5-2.667,5-5s-4.583-6.75-4.583-9.25S6.402,0.5,6.402,0.5z"/> 		<path oryx:anchors="top left" id="_9EB81987-07B2-4CEE-9BA2-981B8C91CEABframe11" style="opacity:1;fill:none;stroke-width:1.5" d="M 3.5 4.5 L 13.5 4.5" stroke="#000000"/> 		<path oryx:anchors="top left" id="_9EB81987-07B2-4CEE-9BA2-981B8C91CEABframe12" style="opacity:1;fill:none;stroke-width:1.5" d="M 3.8 8.5 L 13.8 8.5" stroke="#000000"/> 		<path oryx:anchors="top left" id="_9EB81987-07B2-4CEE-9BA2-981B8C91CEABframe13" style="opacity:1;fill:none;stroke-width:1.5" d="M 6.3 12.5 L 16.3 12.5" stroke="#000000"/> 		<path oryx:anchors="top left" id="_9EB81987-07B2-4CEE-9BA2-981B8C91CEABframe14" style="opacity:1;fill:none;stroke-width:1.5" d="M 6.5 16.5 L 16.5 16.5" stroke="#000000"/> 	</g> 	 	<g id="_9EB81987-07B2-4CEE-9BA2-981B8C91CEABuserTask" transform="scale(0.7,0.7) translate(8,8)" display="none"> 		<path id="_9EB81987-07B2-4CEE-9BA2-981B8C91CEABframe15" oryx:anchors="top left" style="opacity:1;fill:#F4F6F7" stroke="#000000" d="M0.585,24.167h24.083v-7.833c0,0-2.333-3.917-7.083-5.167h-9.25    c-4.417,1.333-7.833,5.75-7.833,5.75L0.585,24.167z"/> 		<path id="_9EB81987-07B2-4CEE-9BA2-981B8C91CEABframe16" oryx:anchors="top left" style="opacity:1;fill:none" d="M 6 20 L 6 24" stroke="#000000"/> 		<path id="_9EB81987-07B2-4CEE-9BA2-981B8C91CEABframe17" oryx:anchors="top left" style="opacity:1;fill:none" d="M 20 20 L 20 24" stroke="#000000"/> 		<circle id="_9EB81987-07B2-4CEE-9BA2-981B8C91CEABframe18" oryx:anchors="top left" fill="black" cx="13.002" cy="5.916" r="5.417" stroke="#000000"/> 		<path id="_9EB81987-07B2-4CEE-9BA2-981B8C91CEABframe19" oryx:anchors="top left" style="opacity:1;fill:#F0EFF0;" stroke="#000000" d="M8.043,7.083c0,0,2.814-2.426,5.376-1.807s4.624-0.693,4.624-0.693    c0.25,1.688,0.042,3.75-1.458,5.584c0,0,1.083,0.75,1.083,1.5s0.125,1.875-1,3s-5.5,1.25-6.75,0S8.668,12.834,8.668,12    s0.583-1.25,1.25-1.917C8.835,9.5,7.419,7.708,8.043,7.083z"/> 	</g> 	 	<g id="_9EB81987-07B2-4CEE-9BA2-981B8C91CEABserviceTask" transform="scale(0.7,0.7) translate(8,8)" display="none"> 		<polygon oryx:anchors="top left" id="_9EB81987-07B2-4CEE-9BA2-981B8C91CEABframe20" style="opacity:1;fill:#ffffff" stroke="#000000" points="15.392,5.064 17.954,2.502 20.347,4.895 17.786,7.455     18.729,9.732 22.353,9.732 22.353,13.115 18.731,13.115 17.788,15.392 20.351,17.955 17.958,20.347 15.397,17.786 13.12,18.729     13.12,22.353 9.737,22.353 9.737,18.731 7.46,17.788 4.897,20.35 2.506,17.958 5.066,15.397 4.124,13.12 0.5,13.12 0.5,9.737     4.121,9.737 5.065,7.461 2.503,4.898 4.895,2.506 7.455,5.066 9.732,4.125 9.732,0.5 13.116,0.5 13.116,4.121 "/> 		<circle oryx:anchors="top left" id="_9EB81987-07B2-4CEE-9BA2-981B8C91CEABframe21" style="opacity:1;fill:none" stroke="#000000" cx="11.427" cy="11.426" r="3.714"/> 		<polygon oryx:anchors="top left" id="_9EB81987-07B2-4CEE-9BA2-981B8C91CEABframe22" style="opacity:1;fill:#ffffff" stroke="#000000" points="21.392,11.064 23.954,8.502 26.347,10.895 23.786,13.455     24.729,15.732 28.353,15.732 28.353,19.115 24.731,19.115 23.788,21.392 26.351,23.955 23.958,26.347 21.397,23.786 19.12,24.729     19.12,28.353 15.737,28.353 15.737,24.731 13.46,23.788 10.897,26.35 8.506,23.958 11.066,21.397 10.124,19.12 6.5,19.12     6.5,15.737 10.121,15.737 11.065,13.461 8.503,10.898 10.895,8.506 13.455,11.066 15.732,10.125 15.732,6.5 19.116,6.5     19.116,10.121 "/> 		<circle oryx:anchors="top left" id="_9EB81987-07B2-4CEE-9BA2-981B8C91CEABframe23" style="opacity:1;fill:none;" stroke="#000000" cx="17.427" cy="17.426" r="3.714"/> 	</g> 	 	<g id="_9EB81987-07B2-4CEE-9BA2-981B8C91CEABsendTask" display="none"> 		<path id="_9EB81987-07B2-4CEE-9BA2-981B8C91CEABstframe24" oryx:anchors="left top" stroke="#FFFFFF" fill="black" stroke-width="1" d="M8,11 L8,21 L24,21 L24,11 L16,17z"/> 		<path id="_9EB81987-07B2-4CEE-9BA2-981B8C91CEABstframe25" oryx:anchors="left top" stroke="#FFFFFF" fill="black" stroke-width="1" d="M7,10 L16,17 L25 10z"/> 	</g> 	 	<g id="_9EB81987-07B2-4CEE-9BA2-981B8C91CEABreceiveTask" display="none"> 		<path id="_9EB81987-07B2-4CEE-9BA2-981B8C91CEABframe26" oryx:anchors="left top" stroke="#000000" fill="none" stroke-width="1" d="M8,11 L8,21 L24,21 L24,11z M8,11 L16,17 L24,11"/> 	</g> 	 	<g id="_9EB81987-07B2-4CEE-9BA2-981B8C91CEABnone" display="inherit"/>  	<g id="_9EB81987-07B2-4CEE-9BA2-981B8C91CEABsequential" display="none">         <path oryx:anchors="bottom" fill="none" stroke="#000000" stroke-width="2" d="M46,76h10M46,72h10 M46,68h10" id="_9EB81987-07B2-4CEE-9BA2-981B8C91CEAB__9EB81987-07B2-4CEE-9BA2-981B8C91CEAB_20"/>     </g>   </g></g><g class="children" style="overflow:hidden"/><g class="edge"/></g><g class="controls"><g class="dockers"/><g class="magnets" transform="translate(263, 140)"><g pointer-events="all" display="none" transform="translate(-7, 12)"><circle cx="8" cy="8" r="4" stroke="none" fill="red" fill-opacity="0.3"/></g><g pointer-events="all" display="none" transform="translate(-7, 32)"><circle cx="8" cy="8" r="4" stroke="none" fill="red" fill-opacity="0.3"/></g><g pointer-events="all" display="none" transform="translate(-7, 52)"><circle cx="8" cy="8" r="4" stroke="none" fill="red" fill-opacity="0.3"/></g><g pointer-events="all" display="none" transform="translate(17, 71)"><circle cx="8" cy="8" r="4" stroke="none" fill="red" fill-opacity="0.3"/></g><g pointer-events="all" display="none" transform="translate(42, 71)"><circle cx="8" cy="8" r="4" stroke="none" fill="red" fill-opacity="0.3"/></g><g pointer-events="all" display="none" transform="translate(67, 71)"><circle cx="8" cy="8" r="4" stroke="none" fill="red" fill-opacity="0.3"/></g><g pointer-events="all" display="none" transform="translate(91, 12)"><circle cx="8" cy="8" r="4" stroke="none" fill="red" fill-opacity="0.3"/></g><g pointer-events="all" display="none" transform="translate(91, 32)"><circle cx="8" cy="8" r="4" stroke="none" fill="red" fill-opacity="0.3"/></g><g pointer-events="all" display="none" transform="translate(91, 52)"><circle cx="8" cy="8" r="4" stroke="none" fill="red" fill-opacity="0.3"/></g><g pointer-events="all" display="none" transform="translate(17, -7)"><circle cx="8" cy="8" r="4" stroke="none" fill="red" fill-opacity="0.3"/></g><g pointer-events="all" display="none" transform="translate(42, -7)"><circle cx="8" cy="8" r="4" stroke="none" fill="red" fill-opacity="0.3"/></g><g pointer-events="all" display="none" transform="translate(67, -7)"><circle cx="8" cy="8" r="4" stroke="none" fill="red" fill-opacity="0.3"/></g><g pointer-events="all" display="none" transform="translate(42, 32)"><circle cx="8" cy="8" r="4" stroke="none" fill="red" fill-opacity="0.3"/></g></g></g></g><g id="_B6548984-BA29-40F6-8D24-9F1593FB25C7" bpmn2nodeid="_5D23DAB0-7566-476A-85FE-34739F33F4A2"><g class="stencils" transform="translate(418, 160)"><g class="me"><g id="_B6548984-BA29-40F6-8D24-9F1593FB25C7">        <defs id="_B6548984-BA29-40F6-8D24-9F1593FB25C7__B6548984-BA29-40F6-8D24-9F1593FB25C7_4"> 		<radialGradient id="_B6548984-BA29-40F6-8D24-9F1593FB25C7background" cx="10%" cy="10%" r="100%" fx="10%" fy="10%"> 			<stop offset="0%" stop-color="#ffffff" stop-opacity="1" id="_B6548984-BA29-40F6-8D24-9F1593FB25C7__B6548984-BA29-40F6-8D24-9F1593FB25C7_5"/> 			<stop id="_B6548984-BA29-40F6-8D24-9F1593FB25C7fill_el" offset="100%" stop-color="#f0e68c" stop-opacity="1"/> 		</radialGradient> 		<radialGradient id="_B6548984-BA29-40F6-8D24-9F1593FB25C7borderbackground" cx="10%" cy="10%" r="100%" fx="10%" fy="10%"> 			<stop offset="0%" stop-color="#ffffff" stop-opacity="1" id="_B6548984-BA29-40F6-8D24-9F1593FB25C7__B6548984-BA29-40F6-8D24-9F1593FB25C7_6"/> 			<stop id="_B6548984-BA29-40F6-8D24-9F1593FB25C7fill_border" offset="100%" stop-color="#a67f00" stop-opacity="1" stroke="#a67f00"/> 		</radialGradient> 	</defs> 	     <path d=" M0 20.5  L20.5 0  L40 20.5  L20.5 40  z" id="_B6548984-BA29-40F6-8D24-9F1593FB25C7bg_frame" fill="url(#_B6548984-BA29-40F6-8D24-9F1593FB25C7background) white" style="stroke-width:1" stroke="#a67f00"/>     <g id="_B6548984-BA29-40F6-8D24-9F1593FB25C7frame" stroke="#a67f00">       <path id="_B6548984-BA29-40F6-8D24-9F1593FB25C7frame2" d=" M13.25 12.05  L17.25 12.05  L27.65 28.95  L23.75 28.95  z" style="stroke-width:1" stroke="#a67f00" fill="url(#_B6548984-BA29-40F6-8D24-9F1593FB25C7borderbackground)"/>       <path id="_B6548984-BA29-40F6-8D24-9F1593FB25C7frame3" d=" M13.25 28.95  L23.75 12.05  L27.65 12.05  L17.25 28.95  z" style="stroke-width:1" stroke="#a67f00" fill="url(#_B6548984-BA29-40F6-8D24-9F1593FB25C7borderbackground)"/>     </g> 	 	<text id="_B6548984-BA29-40F6-8D24-9F1593FB25C7text_name" x="30.5" y="30.5" oryx:align="left top" stroke-width="0pt" letter-spacing="-0.01px" fill="#000000" text-anchor="start" transform="rotate(0 30.5 30.5)" visibility="inherit" oryx:fontSize="12"/> 	   </g></g><g class="children" style="overflow:hidden"/><g class="edge"/></g><g class="controls"><g class="dockers"/><g class="magnets" transform="translate(418, 160)"><g pointer-events="all" display="none" transform="translate(12.5, 12.5)"><circle cx="8" cy="8" r="4" stroke="none" fill="red" fill-opacity="0.3"/></g></g></g></g><g id="_814BC130-38EC-4AA2-B781-40BF64B733E7" bpmn2nodeid="_FAAAB6C5-56EC-4244-883C-D07C43E1686F"><g class="stencils" transform="translate(503, 166)"><g class="me"><g pointer-events="fill" id="_814BC130-38EC-4AA2-B781-40BF64B733E7">      <defs id="_814BC130-38EC-4AA2-B781-40BF64B733E7__814BC130-38EC-4AA2-B781-40BF64B733E7_5"> 		<radialGradient id="_814BC130-38EC-4AA2-B781-40BF64B733E7background" cx="10%" cy="10%" r="100%" fx="10%" fy="10%"> 			<stop offset="0%" stop-color="#ffffff" stop-opacity="1" id="_814BC130-38EC-4AA2-B781-40BF64B733E7__814BC130-38EC-4AA2-B781-40BF64B733E7_6"/> 			<stop id="_814BC130-38EC-4AA2-B781-40BF64B733E7fill_el" offset="100%" stop-color="#ff6347" stop-opacity="1"/> 		</radialGradient> 	</defs> 	     <circle id="_814BC130-38EC-4AA2-B781-40BF64B733E7bg_frame" cx="14" cy="14" r="14" stroke="#000000" fill="url(#_814BC130-38EC-4AA2-B781-40BF64B733E7background) white" stroke-width="3"/> 	<text font-size="11" id="_814BC130-38EC-4AA2-B781-40BF64B733E7text_name" x="14" y="30" oryx:align="top center" stroke="black" stroke-width="0pt" letter-spacing="-0.01px" fill="#000000" text-anchor="middle" transform="rotate(0 14 30)" visibility="inherit" oryx:fontSize="11"/>   </g></g><g class="children" style="overflow:hidden"/><g class="edge"/></g><g class="controls"><g class="dockers"/><g class="magnets" transform="translate(503, 166)"><g pointer-events="all" display="none" transform="translate(6, 6)"><circle cx="8" cy="8" r="4" stroke="none" fill="red" fill-opacity="0.3"/></g></g></g></g><g id="_70DA2875-32D1-472B-9BC5-3B839135D64E" bpmn2nodeid="_562C451E-F5AD-486E-B82E-0938D3F3D62D"><g class="stencils" transform="translate(263, 270)"><g class="me"><g pointer-events="fill" oryx:minimumSize="50 40" id="_70DA2875-32D1-472B-9BC5-3B839135D64E">   	<defs id="_70DA2875-32D1-472B-9BC5-3B839135D64E__70DA2875-32D1-472B-9BC5-3B839135D64E_17"> 		<radialGradient id="_70DA2875-32D1-472B-9BC5-3B839135D64Ebackground" cx="10%" cy="10%" r="100%" fx="10%" fy="10%"> 			<stop offset="0%" stop-color="#ffffff" stop-opacity="1" id="_70DA2875-32D1-472B-9BC5-3B839135D64E__70DA2875-32D1-472B-9BC5-3B839135D64E_18"/> 			<stop id="_70DA2875-32D1-472B-9BC5-3B839135D64Efill_el" offset="100%" stop-color="#fafad2" stop-opacity="1"/> 		</radialGradient> 		<radialGradient id="_70DA2875-32D1-472B-9BC5-3B839135D64Eborderbackground" cx="10%" cy="10%" r="100%" fx="10%" fy="10%"> 			<stop offset="0%" stop-color="#ffffff" stop-opacity="1" id="_70DA2875-32D1-472B-9BC5-3B839135D64E__70DA2875-32D1-472B-9BC5-3B839135D64E_19"/> 			<stop id="_70DA2875-32D1-472B-9BC5-3B839135D64Efill_border" offset="100%" stop-color="#000000" stop-opacity="1" stroke="#000000"/> 		</radialGradient> 	</defs> 	 	<rect id="_70DA2875-32D1-472B-9BC5-3B839135D64Etext_frame" oryx:anchors="bottom top right left" x="1" y="1" width="94" height="79" rx="10" ry="10" stroke="none" stroke-width="0" fill="none"/> 	<rect id="_70DA2875-32D1-472B-9BC5-3B839135D64Ebg_frame" oryx:resize="vertical horizontal" x="0" y="0" width="100" height="80" rx="10" ry="10" stroke="#000000" stroke-width="1" fill="url(#_70DA2875-32D1-472B-9BC5-3B839135D64Ebackground) #ffffcc"/> 		<text font-size="12" id="_70DA2875-32D1-472B-9BC5-3B839135D64Etext_name" x="50" y="40" oryx:align="middle center" oryx:fittoelem="text_frame" stroke="black" text-anchor="middle" stroke-width="0pt" letter-spacing="-0.01px" fill="#000000" transform="rotate(0 50 40)" visibility="inherit" oryx:fontSize="12"><tspan x="50" y="40" dy="5">Correct Input</tspan></text>     <g id="_70DA2875-32D1-472B-9BC5-3B839135D64EmanualTask" transform="scale(0.7,0.7) translate(8,8)" display="none">     	<path oryx:anchors="top left" id="_70DA2875-32D1-472B-9BC5-3B839135D64Eframe" style="opacity:1;fill:none;fill-opacity:1;stroke-width:1" d="M0.5,3.751l4.083-3.25c0,0,11.166,0.083,12.083,0.083s-2.417,2.917-1.5,2.917     s11.667,0,12.584,0c1.166,1.708-0.168,3.167-0.834,3.667s0.875,1.917-1,4.417c-0.75,0.25,0.75,1.875-1.333,3.333     c-1.167,0.583,0.583,1.542-1.25,2.833c-1.167,0-20.833,0.083-20.833,0.083l-2-1.333V3.751z" stroke="#000000"/> 		<path id="_70DA2875-32D1-472B-9BC5-3B839135D64Eframe2" oryx:anchors="top left" style="opacity:1;fill:none;stroke-width:2" d="M 13.5 7 L 27 7" stroke="#000000"/> 		<path id="_70DA2875-32D1-472B-9BC5-3B839135D64Eframe3" oryx:anchors="top left" style="opacity:1;fill:none;stroke-width:2" d="M 13.5 11 L 26 11" stroke="#000000"/> 		<path id="_70DA2875-32D1-472B-9BC5-3B839135D64Eframe4" oryx:anchors="top left" style="opacity:1;fill:none;stroke-width:1.5" d="M 14 14.5 L 25 14.5" stroke="#000000"/> 		<path id="_70DA2875-32D1-472B-9BC5-3B839135D64Eframe5" oryx:anchors="top left" style="opacity:1;fill:none;stroke-width:1.5" d="M 8.2 3.1 L 15 3.1" stroke="#000000"/> 	</g> 	 	<g id="_70DA2875-32D1-472B-9BC5-3B839135D64EbusinessRuleTask" transform="scale(0.7,0.7) translate(8,8)" display="none"> 		<rect id="_70DA2875-32D1-472B-9BC5-3B839135D64Eframe6" oryx:anchors="top left" x="0" y="0" width="22" height="4" style="opacity:1;fill:#B3B1B3;fill-opacity:1;" stroke="#000000"/> 		<rect id="_70DA2875-32D1-472B-9BC5-3B839135D64Eframe7" oryx:anchors="top left" x="0" y="4" style="opacity:1;fill:none;" width="22" height="12" stroke="#000000"/> 		<path id="_70DA2875-32D1-472B-9BC5-3B839135D64Eframe8" oryx:anchors="top left" style="opacity:1;fill:none;" d="M 0 10 L 22 10" stroke="#000000"/> 		<path id="_70DA2875-32D1-472B-9BC5-3B839135D64Eframe9" oryx:anchors="top left" style="opacity:1; fill:none;" d="M 7 4 L 7 16" stroke="#000000"/> 	</g> 	 	<g id="_70DA2875-32D1-472B-9BC5-3B839135D64EscriptTask" transform="scale(0.7,0.7) translate(8,8)" display="none"> 		<path oryx:anchors="top left" id="_70DA2875-32D1-472B-9BC5-3B839135D64Eframe10" style="opacity:1;fill:none;" stroke="#000000" d="M6.402,0.5h14.5c0,0-5.833,2.833-5.833,5.583s4.417,6,4.417,9.167    s-4.167,5.083-4.167,5.083H0.235c0,0,5-2.667,5-5s-4.583-6.75-4.583-9.25S6.402,0.5,6.402,0.5z"/> 		<path oryx:anchors="top left" id="_70DA2875-32D1-472B-9BC5-3B839135D64Eframe11" style="opacity:1;fill:none;stroke-width:1.5" d="M 3.5 4.5 L 13.5 4.5" stroke="#000000"/> 		<path oryx:anchors="top left" id="_70DA2875-32D1-472B-9BC5-3B839135D64Eframe12" style="opacity:1;fill:none;stroke-width:1.5" d="M 3.8 8.5 L 13.8 8.5" stroke="#000000"/> 		<path oryx:anchors="top left" id="_70DA2875-32D1-472B-9BC5-3B839135D64Eframe13" style="opacity:1;fill:none;stroke-width:1.5" d="M 6.3 12.5 L 16.3 12.5" stroke="#000000"/> 		<path oryx:anchors="top left" id="_70DA2875-32D1-472B-9BC5-3B839135D64Eframe14" style="opacity:1;fill:none;stroke-width:1.5" d="M 6.5 16.5 L 16.5 16.5" stroke="#000000"/> 	</g> 	 	<g id="_70DA2875-32D1-472B-9BC5-3B839135D64EuserTask" transform="scale(0.7,0.7) translate(8,8)" display="inherit"> 		<path id="_70DA2875-32D1-472B-9BC5-3B839135D64Eframe15" oryx:anchors="top left" style="opacity:1;fill:#F4F6F7" stroke="#000000" d="M0.585,24.167h24.083v-7.833c0,0-2.333-3.917-7.083-5.167h-9.25    c-4.417,1.333-7.833,5.75-7.833,5.75L0.585,24.167z"/> 		<path id="_70DA2875-32D1-472B-9BC5-3B839135D64Eframe16" oryx:anchors="top left" style="opacity:1;fill:none" d="M 6 20 L 6 24" stroke="#000000"/> 		<path id="_70DA2875-32D1-472B-9BC5-3B839135D64Eframe17" oryx:anchors="top left" style="opacity:1;fill:none" d="M 20 20 L 20 24" stroke="#000000"/> 		<circle id="_70DA2875-32D1-472B-9BC5-3B839135D64Eframe18" oryx:anchors="top left" fill="black" cx="13.002" cy="5.916" r="5.417" stroke="#000000"/> 		<path id="_70DA2875-32D1-472B-9BC5-3B839135D64Eframe19" oryx:anchors="top left" style="opacity:1;fill:#F0EFF0;" stroke="#000000" d="M8.043,7.083c0,0,2.814-2.426,5.376-1.807s4.624-0.693,4.624-0.693    c0.25,1.688,0.042,3.75-1.458,5.584c0,0,1.083,0.75,1.083,1.5s0.125,1.875-1,3s-5.5,1.25-6.75,0S8.668,12.834,8.668,12    s0.583-1.25,1.25-1.917C8.835,9.5,7.419,7.708,8.043,7.083z"/> 	</g> 	 	<g id="_70DA2875-32D1-472B-9BC5-3B839135D64EserviceTask" transform="scale(0.7,0.7) translate(8,8)" display="none"> 		<polygon oryx:anchors="top left" id="_70DA2875-32D1-472B-9BC5-3B839135D64Eframe20" style="opacity:1;fill:#ffffff" stroke="#000000" points="15.392,5.064 17.954,2.502 20.347,4.895 17.786,7.455     18.729,9.732 22.353,9.732 22.353,13.115 18.731,13.115 17.788,15.392 20.351,17.955 17.958,20.347 15.397,17.786 13.12,18.729     13.12,22.353 9.737,22.353 9.737,18.731 7.46,17.788 4.897,20.35 2.506,17.958 5.066,15.397 4.124,13.12 0.5,13.12 0.5,9.737     4.121,9.737 5.065,7.461 2.503,4.898 4.895,2.506 7.455,5.066 9.732,4.125 9.732,0.5 13.116,0.5 13.116,4.121 "/> 		<circle oryx:anchors="top left" id="_70DA2875-32D1-472B-9BC5-3B839135D64Eframe21" style="opacity:1;fill:none" stroke="#000000" cx="11.427" cy="11.426" r="3.714"/> 		<polygon oryx:anchors="top left" id="_70DA2875-32D1-472B-9BC5-3B839135D64Eframe22" style="opacity:1;fill:#ffffff" stroke="#000000" points="21.392,11.064 23.954,8.502 26.347,10.895 23.786,13.455     24.729,15.732 28.353,15.732 28.353,19.115 24.731,19.115 23.788,21.392 26.351,23.955 23.958,26.347 21.397,23.786 19.12,24.729     19.12,28.353 15.737,28.353 15.737,24.731 13.46,23.788 10.897,26.35 8.506,23.958 11.066,21.397 10.124,19.12 6.5,19.12     6.5,15.737 10.121,15.737 11.065,13.461 8.503,10.898 10.895,8.506 13.455,11.066 15.732,10.125 15.732,6.5 19.116,6.5     19.116,10.121 "/> 		<circle oryx:anchors="top left" id="_70DA2875-32D1-472B-9BC5-3B839135D64Eframe23" style="opacity:1;fill:none;" stroke="#000000" cx="17.427" cy="17.426" r="3.714"/> 	</g> 	 	<g id="_70DA2875-32D1-472B-9BC5-3B839135D64EsendTask" display="none"> 		<path id="_70DA2875-32D1-472B-9BC5-3B839135D64Estframe24" oryx:anchors="left top" stroke="#FFFFFF" fill="black" stroke-width="1" d="M8,11 L8,21 L24,21 L24,11 L16,17z"/> 		<path id="_70DA2875-32D1-472B-9BC5-3B839135D64Estframe25" oryx:anchors="left top" stroke="#FFFFFF" fill="black" stroke-width="1" d="M7,10 L16,17 L25 10z"/> 	</g> 	 	<g id="_70DA2875-32D1-472B-9BC5-3B839135D64EreceiveTask" display="none"> 		<path id="_70DA2875-32D1-472B-9BC5-3B839135D64Eframe26" oryx:anchors="left top" stroke="#000000" fill="none" stroke-width="1" d="M8,11 L8,21 L24,21 L24,11z M8,11 L16,17 L24,11"/> 	</g> 	 	<g id="_70DA2875-32D1-472B-9BC5-3B839135D64Enone" display="inherit"/>  	<g id="_70DA2875-32D1-472B-9BC5-3B839135D64Esequential" display="none">         <path oryx:anchors="bottom" fill="none" stroke="#000000" stroke-width="2" d="M46,76h10M46,72h10 M46,68h10" id="_70DA2875-32D1-472B-9BC5-3B839135D64E__70DA2875-32D1-472B-9BC5-3B839135D64E_20"/>     </g>   </g></g><g class="children" style="overflow:hidden"/><g class="edge"/></g><g class="controls"><g class="dockers"/><g class="magnets" transform="translate(263, 270)"><g pointer-events="all" display="none" transform="translate(-7, 12)"><circle cx="8" cy="8" r="4" stroke="none" fill="red" fill-opacity="0.3"/></g><g pointer-events="all" display="none" transform="translate(-7, 32)"><circle cx="8" cy="8" r="4" stroke="none" fill="red" fill-opacity="0.3"/></g><g pointer-events="all" display="none" transform="translate(-7, 52)"><circle cx="8" cy="8" r="4" stroke="none" fill="red" fill-opacity="0.3"/></g><g pointer-events="all" display="none" transform="translate(17, 71)"><circle cx="8" cy="8" r="4" stroke="none" fill="red" fill-opacity="0.3"/></g><g pointer-events="all" display="none" transform="translate(42, 71)"><circle cx="8" cy="8" r="4" stroke="none" fill="red" fill-opacity="0.3"/></g><g pointer-events="all" display="none" transform="translate(67, 71)"><circle cx="8" cy="8" r="4" stroke="none" fill="red" fill-opacity="0.3"/></g><g pointer-events="all" display="none" transform="translate(91, 12)"><circle cx="8" cy="8" r="4" stroke="none" fill="red" fill-opacity="0.3"/></g><g pointer-events="all" display="none" transform="translate(91, 32)"><circle cx="8" cy="8" r="4" stroke="none" fill="red" fill-opacity="0.3"/></g><g pointer-events="all" display="none" transform="translate(91, 52)"><circle cx="8" cy="8" r="4" stroke="none" fill="red" fill-opacity="0.3"/></g><g pointer-events="all" display="none" transform="translate(17, -7)"><circle cx="8" cy="8" r="4" stroke="none" fill="red" fill-opacity="0.3"/></g><g pointer-events="all" display="none" transform="translate(42, -7)"><circle cx="8" cy="8" r="4" stroke="none" fill="red" fill-opacity="0.3"/></g><g pointer-events="all" display="none" transform="translate(67, -7)"><circle cx="8" cy="8" r="4" stroke="none" fill="red" fill-opacity="0.3"/></g><g pointer-events="all" display="none" transform="translate(42, 32)"><circle cx="8" cy="8" r="4" stroke="none" fill="red" fill-opacity="0.3"/></g></g></g></g></g><g class="edge"><g id="_E1D02ED8-9665-4880-8833-957BC294CAC7" bpmn2nodeid="_AD09CDCE-422A-454F-B07D-2FF5FBB6AF82"><g class="stencils"><g class="me"><g pointer-events="painted" bpmn2nodeid="_B13FF32C-53BC-44CA-A475-0D63E32A8DA8"><path id="_E1D02ED8-9665-4880-8833-957BC294CAC7_1" d="M150.8125 180L194.484375 180 " stroke="#000000" fill="none" stroke-width="2" stroke-linecap="round" stroke-linejoin="round" marker-start="url(#_E1D02ED8-9665-4880-8833-957BC294CAC7start)" marker-end="url(#_E1D02ED8-9665-4880-8833-957BC294CAC7end)"/></g><text id="_E1D02ED8-9665-4880-8833-957BC294CAC7text_name" font-size="12" x="164.8125" y="166" oryx:edgePosition="startTop" stroke-width="0pt" letter-spacing="-0.01px" fill="#000000" text-anchor="start" transform="rotate(360 150.8125 180)" visibility="inherit" oryx:fontSize="12"/></g><g class="children" style="overflow:hidden"/><g class="edge"/></g><g class="controls"><g class="dockers"/><g class="magnets"/></g></g><g id="_02BF4D36-5B76-4D82-AC7F-16058EF44FDB" bpmn2nodeid="_C752DA85-F695-4526-9CA6-7CED7FF401CE"><g class="stencils"><g class="me"><g pointer-events="painted" bpmn2nodeid="_08EEE3E9-20A6-46F1-A861-16573784A0F8"><path id="_02BF4D36-5B76-4D82-AC7F-16058EF44FDB_1" d="M233.5625 180L262.5 180 " stroke="#000000" fill="none" stroke-width="2" stroke-linecap="round" stroke-linejoin="round" marker-start="url(#_02BF4D36-5B76-4D82-AC7F-16058EF44FDBstart)" marker-end="url(#_02BF4D36-5B76-4D82-AC7F-16058EF44FDBend)"/></g><text id="_02BF4D36-5B76-4D82-AC7F-16058EF44FDBtext_name" font-size="12" x="247.5625" y="166" oryx:edgePosition="startTop" stroke-width="0pt" letter-spacing="-0.01px" fill="#000000" text-anchor="start" transform="rotate(360 233.5625 180)" visibility="inherit" oryx:fontSize="12"/></g><g class="children" style="overflow:hidden"/><g class="edge"/></g><g class="controls"><g class="dockers"/><g class="magnets"/></g></g><g id="_98CB1CE9-FECE-412B-9EC0-40DFED58510E" bpmn2nodeid="_F4D18AD7-2992-4301-97A3-418AF5081AFD"><g class="stencils"><g class="me"><g pointer-events="painted" bpmn2nodeid="_87393EF2-4DA0-4564-8F67-B5B54FDAF4B6"><path id="_98CB1CE9-FECE-412B-9EC0-40DFED58510E_1" d="M363.8046875 180L418.4453125 180 " stroke="#000000" fill="none" stroke-width="2" stroke-linecap="round" stroke-linejoin="round" marker-start="url(#_98CB1CE9-FECE-412B-9EC0-40DFED58510Estart)" marker-end="url(#_98CB1CE9-FECE-412B-9EC0-40DFED58510Eend)"/></g><text id="_98CB1CE9-FECE-412B-9EC0-40DFED58510Etext_name" font-size="12" x="377.8046875" y="166" oryx:edgePosition="startTop" stroke-width="0pt" letter-spacing="-0.01px" fill="#000000" text-anchor="start" transform="rotate(360 363.8046875 180)" visibility="inherit" oryx:fontSize="12"/></g><g class="children" style="overflow:hidden"/><g class="edge"/></g><g class="controls"><g class="dockers"/><g class="magnets"/></g></g><g id="_99D27E6E-0F76-46E1-858E-33106D323A28" bpmn2nodeid="_1B696011-3A0D-473D-BF0A-762FE7FC1FF6"><g class="stencils"><g class="me"><g pointer-events="painted" bpmn2nodeid="_F5EA1CD9-4F70-43EC-BC9D-E010EFCE3FB1"><path id="_99D27E6E-0F76-46E1-858E-33106D323A28_1" d="M458.1328125 180L502.421875 180 " stroke="#000000" fill="none" stroke-width="2" stroke-linecap="round" stroke-linejoin="round" marker-start="url(#_99D27E6E-0F76-46E1-858E-33106D323A28start)" marker-end="url(#_99D27E6E-0F76-46E1-858E-33106D323A28end)"/></g><text id="_99D27E6E-0F76-46E1-858E-33106D323A28text_name" font-size="12" x="472.1328125" y="166" oryx:edgePosition="startTop" stroke-width="0pt" letter-spacing="-0.01px" fill="#000000" text-anchor="start" transform="rotate(360 458.1328125 180)" visibility="inherit" oryx:fontSize="12"><tspan x="472.1328125" y="166" dy="0" id="ext-gen822">No Errors</tspan></text></g><g class="children" style="overflow:hidden"/><g class="edge"/></g><g class="controls"><g class="dockers"/><g class="magnets"/></g></g><g id="_AF33021C-9E26-4178-8EDB-B8B96DD40363" bpmn2nodeid="_19C785AE-12BF-4F90-9E3A-68B9DDBBBC38"><g class="stencils"><g class="me"><g pointer-events="painted" bpmn2nodeid="_64634F55-C7DD-460B-8422-2037A2FE9ECB"><path id="_AF33021C-9E26-4178-8EDB-B8B96DD40363_1" d="M438 200.296875L438 310 L363.8046875 310 " stroke="#000000" fill="none" stroke-width="2" stroke-linecap="round" stroke-linejoin="round" marker-start="url(#_AF33021C-9E26-4178-8EDB-B8B96DD40363start)" marker-end="url(#_AF33021C-9E26-4178-8EDB-B8B96DD40363end)"/></g><text id="_AF33021C-9E26-4178-8EDB-B8B96DD40363text_name" font-size="12" x="424" y="186.296875" oryx:edgePosition="startTop" stroke-width="0pt" letter-spacing="-0.01px" fill="#000000" text-anchor="end" transform="rotate(-90 438 200.296875)" visibility="inherit" oryx:fontSize="12"><tspan x="424" y="186.296875" dy="0" id="ext-gen972">Errors</tspan></text></g><g class="children" style="overflow:hidden"/><g class="edge"/></g><g class="controls"><g class="dockers"/><g class="magnets"/></g></g><g id="_3F45C2E2-B3E1-44F1-B24D-683E486C5667" bpmn2nodeid="_E078A5D3-A517-4358-9543-1F88A9859B1A"><g class="stencils"><g class="me"><g pointer-events="painted" bpmn2nodeid="_DBE62544-2AE2-4760-9EA5-8E7FF6B00553"><path id="_3F45C2E2-B3E1-44F1-B24D-683E486C5667_1" d="M262.5 310L214 310 L214 200.296875 " stroke="#000000" fill="none" stroke-width="2" stroke-linecap="round" stroke-linejoin="round" marker-start="url(#_3F45C2E2-B3E1-44F1-B24D-683E486C5667start)" marker-end="url(#_3F45C2E2-B3E1-44F1-B24D-683E486C5667end)"/></g><text id="_3F45C2E2-B3E1-44F1-B24D-683E486C5667text_name" font-size="12" x="248.5" y="296" oryx:edgePosition="startTop" stroke-width="0pt" letter-spacing="-0.01px" fill="#000000" text-anchor="end" transform="rotate(0 262.5 310)" visibility="inherit" oryx:fontSize="12"/></g><g class="children" style="overflow:hidden"/><g class="edge"/></g><g class="controls"><g class="dockers"/><g class="magnets"/></g></g></g><text id="_FC0C4557-A978-4152-ACC9-314CD7B87D16" style="stroke-width:1;fill:rgb(177,194,214);font-family:arial;font-weight:bold" font-size="12" onclick="ORYX.Plugins.CanvasTitle.openTextualAnalysis()" onmouseover="ORYX.Plugins.CanvasTitle.addToolTip('_FC0C4557-A978-4152-ACC9-314CD7B87D16')" transform="translate(10, 20)">RCM Business Process v.1.0 (src.RCMBusinessProcess)</text></g></g></svg>